<svg viewBox="0 0 21 20" fill="none" xmlns="http://www.w3.org/2000/svg">
  <path
    d="M10.1323 1.84294C9.77307 1.7067 9.04231 1.84913 8.72647 1.74385C7.77275 1.4404 6.81284 0.944963 6.1502 0.913998C4.63293 0.83349 3.90835 1.75624 2.79362 2.71615C2.40347 3.04437 1.61696 3.40356 1.32589 3.84946C0.873808 4.53068 0.991474 5.36673 0.917158 6.20278C0.811878 7.31751 1.76559 8.13498 1.87707 9.57793C1.96377 10.6803 3.37576 11.9622 4.37902 12.6558C4.78156 12.9345 5.4504 12.4515 5.8839 12.693C6.65802 13.1327 7.26493 13.8263 8.09479 14.1669C8.79459 14.458 9.71734 14.4146 10.4233 14.4889C10.7825 14.5261 11.2842 14.1236 11.6186 14.1421C14.9566 14.2908 14.4116 15.5665 15.3901 15.1702C16.3748 14.78 16.6349 14.3837 16.5048 13.5352C16.3748 12.6868 15.0619 11.6773 14.9999 10.414C14.9813 10.0486 15.3467 9.15062 15.0866 8.25264C14.8327 7.39182 13.9657 6.54339 13.4269 5.57109C12.6033 4.10956 11.8044 2.47462 10.1323 1.84294Z"
    stroke="white"
    stroke-linecap="round"
    stroke-linejoin="round"
  />
  <path
    d="M18.3379 16.737C18.3379 16.737 20.1586 17.381 19.979 15.8266C19.7933 14.2722 18.2141 15.3869 17.4771 14.8357L16.5358 14.0059"
    stroke="white"
    stroke-linecap="round"
    stroke-linejoin="round"
  />
  <path
    d="M15.0867 15.2631C15.8608 16.0062 16.3748 16.9723 16.5916 18.0251C16.7154 18.632 17.0251 19.1832 17.7496 19.0779C19.1183 18.8797 19.0316 17.3934 18.0159 16.3468"
    stroke="white"
    stroke-linecap="round"
    stroke-linejoin="round"
  />
  <path
    d="M6.34216 2.80286C6.34216 2.80286 7.20918 2.80286 8.07619 3.14966C8.29913 3.23636 8.54685 3.69464 8.72026 3.78754C9.24046 4.07241 9.52534 4.02287 9.84118 4.41302"
    stroke="white"
    stroke-linecap="round"
    stroke-linejoin="round"
  />
  <path
    d="M11.3833 5.83121C11.3833 5.83121 11.6001 6.46908 11.9097 6.92736C12.0645 7.1565 12.3556 7.21223 12.4299 7.38564"
    stroke="white"
    stroke-linecap="round"
    stroke-linejoin="round"
  />
  <path
    d="M3.04139 6.92735C3.04139 6.92735 2.57692 7.48472 2.89276 7.68289C3.21479 7.88726 3.59256 8.58706 3.59256 8.58706"
    stroke="white"
    stroke-linecap="round"
    stroke-linejoin="round"
  />
  <path
    d="M9.32727 11.6588C9.32727 11.6588 10.4358 12.8107 10.8445 12.2595C11.2595 11.7083 11.885 11.2748 11.885 11.2748"
    stroke="white"
    stroke-linecap="round"
    stroke-linejoin="round"
  />
  <path
    d="M5.81577 7.00786C5.84674 7.09456 5.72907 8.25883 5.29557 8.50036C4.86206 8.74808 4.86206 9.33021 4.86206 9.33021"
    stroke="white"
    stroke-linecap="round"
    stroke-linejoin="round"
  />
</svg>
