<svg viewBox="0 0 22 20" fill="none" xmlns="http://www.w3.org/2000/svg">
  <path
    d="M21.168 9.36493C21.168 12.249 22.1293 17.4629 11.049 17.4629C-0.0312909 17.4629 0.930078 12.249 0.930078 9.36493C0.930078 9.36493 4.65626 11.0701 11.049 11.0701C17.4418 11.0701 21.168 9.36493 21.168 9.36493Z"
    stroke="white"
    stroke-linecap="round"
    stroke-linejoin="round"
  />
  <path
    d="M15.519 17.0769V17.6945C15.4348 18.8944 14.691 19.0909 11.049 19.0909C7.41404 19.0909 6.66319 18.8944 6.57898 17.6945V17.0769"
    stroke="white"
    stroke-linecap="round"
    stroke-linejoin="round"
  />
  <path
    d="M19.0839 6.52293C20.5715 7.75798 20.9434 9.22459 20.9434 9.22459"
    stroke="white"
    stroke-linecap="round"
    stroke-linejoin="round"
  />
  <path
    d="M1.52661 9.59652C1.52661 9.59652 1.51959 7.36501 3.74408 5.80717"
    stroke="white"
    stroke-linecap="round"
    stroke-linejoin="round"
  />
  <path
    d="M8.31937 3.37918C5.71595 3.84934 3.44235 4.99316 3.89145 6.00365C4.47389 7.30887 5.98963 5.97558 7.16151 6.27732C8.63515 6.64924 7.77202 8.52286 9.71581 7.94042C12.0245 7.25273 13.1052 7.54746 14.0525 8.30532C14.9998 9.06319 16.6138 8.44567 16.3331 7.16852C16.0594 5.88436 18.4313 7.4422 18.8172 6.31241C19.1471 5.32999 17.2594 3.96162 13.8841 3.40725"
    stroke="white"
    stroke-linecap="round"
    stroke-linejoin="round"
  />
  <path
    d="M11.4982 2.495C11.4982 3.37216 10.7894 4.08091 9.91226 4.08091C9.0351 4.08091 8.31934 3.37216 8.31934 2.495C8.31934 1.61784 9.0351 0.909088 9.91226 0.909088C10.7894 0.909088 11.4982 1.61784 11.4982 2.495Z"
    stroke="white"
    stroke-linecap="round"
    stroke-linejoin="round"
  />
  <path
    d="M13.5191 3.49146C13.5191 3.96863 13.1402 4.34757 12.663 4.34757C12.1928 4.34757 11.8069 3.96863 11.8069 3.49146C11.8069 3.0213 12.1928 2.63535 12.663 2.63535C13.1402 2.63535 13.5191 3.0213 13.5191 3.49146Z"
    stroke="white"
    stroke-linecap="round"
    stroke-linejoin="round"
  />
  <path
    d="M4.76858 6.59311C4.76858 6.59311 3.4353 8.78251 3.40723 9.89826"
    stroke="white"
    stroke-linecap="round"
    stroke-linejoin="round"
  />
  <path
    d="M6.57908 6.33347C6.57908 6.33347 5.28088 8.83864 5.28088 10.5719"
    stroke="white"
    stroke-linecap="round"
    stroke-linejoin="round"
  />
  <path
    d="M8.05968 7.58255C8.05968 7.58255 7.32287 9.87721 7.2948 10.8666"
    stroke="white"
    stroke-linecap="round"
    stroke-linejoin="round"
  />
  <path
    d="M7.94739 9.00705C7.94739 9.00705 11.8209 9.23862 14.5226 10.8666"
    stroke="white"
    stroke-linecap="round"
    stroke-linejoin="round"
  />
  <path
    d="M15.1963 8.63515C15.1963 8.63515 16.305 9.12636 17.7576 10.2"
    stroke="white"
    stroke-linecap="round"
    stroke-linejoin="round"
  />
  <path
    d="M17.0629 9.42107C17.0629 9.42107 18.9505 8.05971 20.1364 7.76498"
    stroke="white"
    stroke-linecap="round"
    stroke-linejoin="round"
  />
</svg>
