<svg viewBox="0 0 27 35" fill="none" xmlns="http://www.w3.org/2000/svg">
  <path
    d="M1 0.862305C3.69559 2.83799 9.12345 7.51965 9.27016 10.4408C9.41687 13.362 10.7208 14.3535 11.4193 14.5398C11.9155 15.1911 13.2179 17.3235 13.7892 19.8427C14.1134 21.2727 15.4494 23.8601 16.7459 23.5078C16.9752 23.3665 17.1944 23.1038 16.215 21.4741C15.5919 20.263 14.8791 18.4564 17.0125 20.9189C17.8149 21.8706 19.7959 24.8184 21.3007 28.9955C21.8912 30.7797 23.4531 34.292 24.9772 34.0673C25.7286 33.9233 26.8854 32.9552 25.5019 30.2347L22.1138 24.2832C21.7873 23.74 21.4918 22.8928 22.9214 23.8494C24.0132 24.8992 25.9926 26.2827 25.1755 23.4173C24.8885 22.3819 23.6414 19.756 20.9495 17.5356L16.4266 13.8786C15.2353 13.0815 13.7128 11.6844 17.1533 12.4736C17.6057 12.599 18.143 12.4891 16.673 11.0469C13.2582 8.15331 5.34282 2.06532 1 0.862305Z"
    fill="#F7F7F7"
    stroke="black"
  />
</svg>
