<svg viewBox="0 0 21 20" fill="none" xmlns="http://www.w3.org/2000/svg">
  <path
    d="M19.6421 7.91972H1.48889C1.48889 4.7832 3.44308 0.909088 10.5655 0.909088C17.6879 0.909088 19.6421 4.7832 19.6421 7.91972Z"
    stroke="white"
    stroke-linecap="round"
    stroke-linejoin="round"
  />
  <path
    d="M1.48889 14.9232H19.6421C19.6421 18.0597 17.6879 19.0909 10.5655 19.0909C3.44308 19.0909 1.48889 18.0597 1.48889 14.9232Z"
    stroke="white"
    stroke-linecap="round"
    stroke-linejoin="round"
  />
  <path
    d="M12.3121 11.5217H1.48887C1.16675 11.5217 0.909058 11.2639 0.909058 10.9417V8.49977C0.909058 8.17752 1.16675 7.91972 1.48887 7.91972"
    stroke="white"
    stroke-linecap="round"
    stroke-linejoin="round"
  />
  <path
    d="M13.8583 11.5217H19.6421C19.9642 11.5217 20.2219 11.2639 20.2219 10.9417V8.49977C20.2219 8.17752 19.9642 7.91972 19.6421 7.91972"
    stroke="white"
    stroke-linecap="round"
    stroke-linejoin="round"
  />
  <path
    d="M13.0852 12.2808L17.5447 7.91972H8.62561L13.0852 12.2808Z"
    stroke="white"
    stroke-linecap="round"
    stroke-linejoin="round"
  />
  <path
    d="M0.909058 13.7631L2.11163 13.2547C2.88472 12.9324 3.75802 12.9324 4.5311 13.2547C5.30419 13.5769 6.17033 13.5769 6.94342 13.2547C7.7165 12.9324 8.58264 12.9324 9.35573 13.2547C10.1288 13.5769 11.0021 13.5769 11.7752 13.2547C12.5411 12.9324 13.4144 12.9324 14.1875 13.2547C14.9606 13.5769 15.8267 13.5769 16.5998 13.2547C17.3729 12.9324 18.239 12.9324 19.0121 13.2547L20.2219 13.7631"
    stroke="white"
    stroke-linecap="round"
    stroke-linejoin="round"
  />
</svg>
