<svg viewBox="0 0 27 20" fill="none" xmlns="http://www.w3.org/2000/svg">
  <path
    d="M14.9873 1.71548C14.0777 1.35092 12.2659 0.72597 10.4392 0.960328C7.95637 1.2728 4.27314 2.72235 2.15565 5.8992C-0.916192 10.4996 1.52935 17.9469 5.84634 16.3759C8.61249 15.369 10.5436 11.0898 13.1681 10.1958C16.3816 9.11077 19.349 10.1871 21.638 12.0359C23.0994 13.225 24.6502 12.4178 25.4853 11.8189C25.1945 10.0829 23.0919 7.93898 21.295 8.48581C21.295 8.48581 25.7089 5.84712 24.3967 3.51222C24.3967 3.51222 21.1235 5.48256 19.6547 5.03989C18.5811 4.71005 17.1346 2.57479 14.9873 1.71548Z"
    stroke="currentColor"
    stroke-linecap="round"
    stroke-linejoin="round"
  />
  <path
    d="M3.19208 16.5755C3.19208 16.5755 2.81929 18.0684 3.92276 18.5979C5.05607 19.1447 15.7852 19.6915 20.0872 17.5476C20.8626 17.157 21.474 16.4019 21.7424 15.4644C22.2942 13.5896 22.0407 12.3223 22.0407 12.3223"
    stroke="currentColor"
    stroke-linecap="round"
    stroke-linejoin="round"
  />
  <path
    d="M1.70837 7.11438C1.70837 7.11438 4.8175 6.68907 6.59201 9.37984"
    stroke="currentColor"
    stroke-linecap="round"
    stroke-linejoin="round"
  />
  <path
    d="M5.04858 3.02612C5.04858 3.02612 7.94894 3.34728 9.5296 6.61961"
    stroke="currentColor"
    stroke-linecap="round"
    stroke-linejoin="round"
  />
  <path
    d="M9.96204 1.02974C9.96204 1.02974 12.5269 2.31437 12.9891 5.14402"
    stroke="currentColor"
    stroke-linecap="round"
    stroke-linejoin="round"
  />
</svg>
