<svg
  viewBox="0 0 117 81"
  xmlns="http://www.w3.org/2000/svg"
  fill="currentColor"
>
  <path
    d="M107.9 47.4454C104.948 48.3256 101.413 49.0084 97.5 49.428V62.4925C101.413 62.0729 104.948 61.3901 107.9 60.5099V47.4454Z"
  />
  <path
    d="M107.9 39.6067C104.948 40.4869 101.413 41.1696 97.5 41.5893V54.6538C101.413 54.2342 104.948 53.5514 107.9 52.6712V39.6067Z"
  />
  <path
    d="M117 30.0429C117 34.0764 108.834 37.5 97.5 38.7154V15.1993C101.413 14.7797 104.948 14.0969 107.9 13.2167V24.2403C111.054 23.384 115.253 21.9119 117 20.7194V30.0429Z"
    fill="#6BDD76"
  />
  <path
    d="M88.4 49.6452C90.6359 49.6452 92.8118 49.5632 94.9 49.408V62.4725C92.8118 62.6277 90.6359 62.7097 88.4 62.7097C72.6046 62.7097 59.8 58.6153 59.8 53.5645V23.5161C59.8 27.8185 69.0911 31.4269 81.6074 32.4018C82.1328 32.4427 82.6638 32.479 83.2 32.5105V28.5912C70.5362 27.6501 59.8 23.9326 59.8 19.5968V18.2904V9.23663C63.4883 12.9672 74.6068 15.6775 87.75 15.6775C90.2165 15.6775 92.6118 15.582 94.9 15.4023V27.1983V28.5047V32.4241V40.2628V45.4886C92.8118 45.6438 90.6359 45.7258 88.4 45.7258C81.9538 45.7258 74.9829 44.7861 70.2 43.6355V47.5548C75.0266 48.7437 81.8363 49.6452 88.4 49.6452Z"
  />
  <path
    d="M57.2 73.1613C57.2 68.1106 44.3953 64.0161 28.6 64.0161C22.2778 64.0161 15.1347 64.9958 10.4 66.1065V62.1871C15.1347 61.0764 22.2778 60.0968 28.6 60.0968C44.3953 60.0968 57.2 64.1912 57.2 69.2419V49.6452C57.2 44.5944 44.3953 40.5 28.6 40.5C12.8047 40.5 0 44.5944 0 49.6452V57.4839C0 52.4331 12.8047 48.3387 28.6 48.3387C34.9222 48.3387 42.0653 49.3184 46.8 50.4291V54.3484C42.0404 53.2174 34.9855 52.2581 28.6 52.2581C12.8047 52.2581 0 56.3525 0 61.4032V81C0 75.9493 12.8047 71.8548 28.6 71.8548C44.3953 71.8548 57.2 75.9493 57.2 81V73.1613Z"
  />
  <path
    d="M28.6 22.2097C29.0357 22.2097 29.4691 22.2128 29.9 22.2189V28.7512C44.3844 29.2002 57.2 33.1377 57.2 37.8871V45.7258C57.2 40.6751 44.3953 36.5806 28.6 36.5806C12.8047 36.5806 0 40.6751 0 45.7258V37.8871C0 34.5021 7.05144 31.3203 15.6 29.7391V23.2068C19.5004 22.5693 23.9188 22.2097 28.6 22.2097Z"
  />
  <path
    d="M0.000156212 32.1693V32.6613L0 32.1387C0 32.1489 5.20975e-05 32.1591 0.000156212 32.1693Z"
  />
  <path
    d="M0.000156212 32.1082C5.20975e-05 32.1184 0 32.1285 0 32.1387V19.5968C0 19.5866 5.20975e-05 19.5764 0.000156212 19.5662V32.1082Z"
  />
  <path
    d="M57.2002 9.14516C57.2002 4.09443 44.3955 0 28.6002 0C12.8048 0 0.000156212 4.09443 0.000156212 9.14516V19.5662V22.2097C0.000156212 17.1589 12.8048 13.0645 28.6002 13.0645C34.9223 13.0645 42.0655 14.0442 46.8002 15.1549V25.084C53.1519 26.7613 57.2 29.2989 57.2 32.1387L57.2002 9.14516Z"
  />
</svg>
