<svg viewBox="0 0 45 57" fill="none" xmlns="http://www.w3.org/2000/svg">
  <path
    d="M17.7108 51.4981L17.7104 51.4978C15.3127 48.8822 13.0169 46.1759 10.8279 43.3849C8.32822 40.1765 5.7819 36.5614 3.85134 33.0004C1.95555 29.4958 0.5 25.7667 0.5 22.3997C0.5 9.97424 10.3711 0.5 22.5 0.5C34.6288 0.5 44.5 9.97424 44.5 22.3997C44.5 25.7667 43.0444 29.4958 41.1487 32.9975L41.5884 33.2355L41.1487 32.9975C39.2181 36.5643 36.6743 40.1769 34.1718 43.3853C31.2196 47.1501 25.9851 52.6958 22.4971 56.286C22.0939 55.882 21.5488 55.3446 20.9653 54.7695C19.7191 53.5409 18.2978 52.1398 17.7108 51.4981Z"
    fill="currentColor"
    stroke="white"
  />
</svg>
