<svg viewBox="0 0 45 56" fill="currentColor" xmlns="http://www.w3.org/2000/svg">
  <path
    fill-rule="evenodd"
    clip-rule="evenodd"
    d="M22.5 53.1992L24.4913 55.176C24.2299 55.4372 23.9194 55.6444 23.5775 55.7858C23.2355 55.9272 22.8689 56 22.4986 56C22.1283 56 21.7617 55.9272 21.4197 55.7858C21.0778 55.6444 20.7672 55.4372 20.5059 55.176L20.4891 55.1564L20.4412 55.1088L20.2669 54.9324C19.2754 53.9157 18.3003 52.8833 17.3419 51.8357C14.9355 49.2106 12.6313 46.4945 10.4344 43.6934C7.92562 40.4734 5.36062 36.8335 3.41156 33.2383C1.50469 29.7132 0 25.894 0 22.3997C0 9.69066 10.1025 0 22.5 0C34.8975 0 45 9.69066 45 22.3997C45 25.894 43.4953 29.7132 41.5884 33.2355C39.6394 36.8363 37.0772 40.4734 34.5656 43.6934C31.4926 47.6123 28.2104 51.364 24.7331 54.9324L24.5588 55.1088L24.5109 55.1564L24.4941 55.1732L22.5 53.1992Z"
  />
</svg>
