<svg viewBox="0 0 13 13" fill="none" xmlns="http://www.w3.org/2000/svg">
  <path
    d="M0.53125 12.3939C0.390411 12.3938 0.255395 12.3377 0.155807 12.2381C0.0562184 12.1386 0.00018741 12.0035 0 11.8627L0 8.90116C0.000509726 8.76039 0.0565033 8.62549 0.155833 8.52574L8.11821 0.564782C8.29713 0.385732 8.50959 0.243695 8.74343 0.146787C8.97727 0.0498792 9.22792 0 9.48104 0C9.73417 0 9.98481 0.0498792 10.2187 0.146787C10.4525 0.243695 10.665 0.385732 10.8439 0.564782L11.8292 1.55007C12.0082 1.729 12.1503 1.94145 12.2472 2.17529C12.3441 2.40914 12.3939 2.65978 12.3939 2.91291C12.3939 3.16603 12.3441 3.41668 12.2472 3.65052C12.1503 3.88436 12.0082 4.09682 11.8292 4.27574L3.86892 12.2381C3.81962 12.2876 3.761 12.3269 3.69644 12.3537C3.63189 12.3804 3.56267 12.3941 3.49279 12.3939H0.53125ZM1.0625 9.12074V11.3314H3.2725L8.87542 5.72853L6.66542 3.51853L1.0625 9.12074ZM9.62696 4.9777L11.0798 3.52491C11.2417 3.36252 11.3326 3.14257 11.3326 2.91326C11.3326 2.68395 11.2417 2.464 11.0798 2.30162L10.093 1.3142C9.93075 1.15212 9.71076 1.06109 9.4814 1.06109C9.25203 1.06109 9.03205 1.15212 8.86975 1.3142L7.41625 2.7677L9.62696 4.9777Z"
    fill="white"
  />
</svg>
