<svg viewBox="0 0 26 20" fill="none" xmlns="http://www.w3.org/2000/svg">
  <path
    d="M19.1561 8.31658C20.7201 10.7857 21.589 13.6386 21.6687 16.9911C21.6904 17.8817 22.4362 18.6058 23.3196 18.6058C24.2464 18.6058 24.9994 17.8527 24.9777 16.9259C24.8257 10.4092 22.1103 5.39129 17.4183 1.45953C17.3459 1.40161 17.2518 1.3292 17.1504 1.24955C16.477 0.728211 15.5067 0.815101 14.9347 1.44505C14.2975 2.13293 14.3699 3.21181 15.0795 3.82004C15.1181 3.85383 15.1568 3.88521 15.1954 3.91417C16.0353 4.60929 16.8028 5.33337 17.4835 6.10813"
    stroke="white"
    stroke-linecap="round"
    stroke-linejoin="round"
  />
  <path
    d="M13.0015 7.29564C13.2839 7.61423 13.4576 8.01972 13.4721 8.47589C13.5156 9.54029 12.6901 10.4382 11.6257 10.4816C11.1551 10.5033 10.7206 10.3513 10.373 10.0906"
    stroke="white"
    stroke-linecap="round"
    stroke-linejoin="round"
  />
  <path
    d="M16.716 8.13554L15.9919 8.68585"
    stroke="white"
    stroke-linecap="round"
    stroke-linejoin="round"
  />
  <path
    d="M19.0548 15.9919L18.3307 16.5422"
    stroke="white"
    stroke-linecap="round"
    stroke-linejoin="round"
  />
  <path
    d="M6.24581 16.4118L5.52173 16.9621"
    stroke="white"
    stroke-linecap="round"
    stroke-linejoin="round"
  />
  <path
    d="M12.3064 14.8913C12.3064 15.9557 11.4447 16.8173 10.3731 16.8173C9.30868 16.8173 8.44702 15.9557 8.44702 14.8913C8.44702 13.8269 9.30868 12.9652 10.3731 12.9652C11.4447 12.9652 12.3064 13.8269 12.3064 14.8913Z"
    stroke="white"
    stroke-linecap="round"
    stroke-linejoin="round"
  />
  <path
    d="M18.3669 12.8204C18.3669 13.8848 17.5053 14.7464 16.4409 14.7464C15.3765 14.7464 14.5076 13.8848 14.5076 12.8204C14.5076 11.756 15.3765 10.8871 16.4409 10.8871C17.5053 10.8871 18.3669 11.756 18.3669 12.8204Z"
    stroke="white"
    stroke-linecap="round"
    stroke-linejoin="round"
  />
  <path
    d="M14.6016 3.70418L1.11199 18.1279C0.735471 18.461 0.90925 19.0909 1.41611 19.0909L21.8207 18.0555"
    stroke="white"
    stroke-linecap="round"
    stroke-linejoin="round"
  />
</svg>
