<svg viewBox="0 0 42 41" fill="none" xmlns="http://www.w3.org/2000/svg">
  <g filter="url(#filter0_d_317_1839)">
    <path
      d="M7.30834 25.2606C7.13398 24.1196 6.90478 22.2046 7.09721 21.0615C7.30497 19.8273 7.64085 18.5771 8.18337 17.4365C8.00577 17.3506 7.86121 17.1998 7.72794 17.0608C7.70886 17.0409 7.69 17.0212 7.67131 17.002C7.41785 16.7415 7.20855 16.4902 7.05503 16.1435C6.88636 15.7626 6.79414 15.3034 6.70883 14.8786C6.6898 14.7838 6.67111 14.6907 6.65199 14.6006C6.48587 13.8177 6.41533 13.044 6.41533 12.244C6.41533 11.4513 6.4616 10.6705 6.60747 9.88964C6.61715 9.83784 6.62642 9.78621 6.63565 9.73481C6.66125 9.59221 6.68655 9.45133 6.71932 9.31341C6.67593 9.39287 6.63242 9.47207 6.58873 9.55095C6.02104 10.5758 5.26838 11.7019 5 12.8672C5.02802 13.5188 5.11213 14.7889 5.10779 15.4403C5.10184 16.3322 5.10893 17.2275 5.18277 18.1168C5.29096 19.42 5.56554 20.7261 5.88106 21.9929C6.06919 22.7482 6.23524 23.5065 6.61216 24.1943C6.81543 24.5653 7.06108 24.9145 7.30834 25.2606Z"
      fill="#E7E58F"
    />
    <path
      fill-rule="evenodd"
      clip-rule="evenodd"
      d="M18.7238 31.7413C18.6936 31.4197 18.574 31.1481 18.3659 30.8692C17.7053 29.9837 13.3326 28.362 11.2869 29.3357C12.5293 30.1109 14.002 30.5847 15.404 30.968C15.555 31.0093 15.7061 31.0512 15.8574 31.0933C16.5919 31.2973 17.3305 31.5025 18.08 31.6336C18.2926 31.6708 18.5074 31.707 18.7238 31.7413Z"
      fill="#F4F3B3"
    />
    <path
      d="M7.09721 21.0615C6.90478 22.2046 7.13398 24.1196 7.30834 25.2606C7.4185 25.4148 7.52897 25.5684 7.63616 25.7231C7.97677 26.2145 8.28778 26.701 8.69765 27.139C9.01833 27.4816 9.35943 27.7799 9.71931 28.0798C10.2335 28.5082 10.7168 28.98 11.2869 29.3357C13.3326 28.362 17.7053 29.9837 18.3659 30.8692C18.574 31.1481 18.6936 31.4197 18.7238 31.7413C19.7792 31.9085 20.8731 32.0301 21.9277 31.9934C23.3682 31.9434 24.8099 31.6479 26.215 31.3033C26.0406 30.8907 25.8102 30.493 25.5785 30.173C25.1388 29.566 24.582 29.0973 23.961 28.7228C23.1089 28.209 22.1357 27.8725 21.1778 27.5993C21.0368 27.5591 20.896 27.5202 20.756 27.4824C19.6831 27.1922 18.5858 27.036 17.5007 26.8194C16.9677 26.713 16.4377 26.592 15.9149 26.4334C15.275 26.2392 14.6341 26.0037 14.1012 25.5867C13.6584 25.2402 13.3119 24.7865 12.9952 24.326C12.2078 23.1811 11.8641 21.8144 11.7884 20.4312C11.7327 19.4139 11.7817 18.1629 12.5101 17.3783C12.7397 17.131 12.9812 16.8865 13.235 16.6546C13.6104 16.3116 14.0128 15.9963 14.4433 15.7413C14.4442 15.7408 14.445 15.7403 14.446 15.7398C14.5382 15.6874 14.9701 15.6558 15.0549 15.6543C15.4421 15.6474 15.8326 15.6456 16.2195 15.6614C16.9638 15.6917 17.6771 15.8522 18.3771 16.0712C18.4464 16.0929 18.5157 16.1152 18.5848 16.1379C18.9342 16.2531 19.2807 16.381 19.6266 16.5128C21.3525 17.1703 23.0469 17.8056 24.8661 18.1803C25.0061 18.2092 25.1462 18.237 25.2864 18.264C26.5429 18.5052 27.8092 18.6701 29.0807 18.7582C29.6932 18.8007 30.3068 18.8254 30.9211 18.8322C31.7794 18.8418 32.6391 18.8166 33.4987 18.7566C33.5395 18.7537 33.5848 18.7508 33.6338 18.7477C34.2182 18.7106 35.3275 18.6402 35.7599 18.1662C35.9973 17.906 36.2018 17.6019 36.3949 17.3077C36.8729 16.5798 36.8708 15.772 36.8686 14.9363C36.8684 14.8794 36.8683 14.8224 36.8683 14.7653V13.1841C36.7951 12.5352 36.7046 11.8886 36.491 11.2632C35.9821 9.7734 35.3057 8.332 34.6 6.92851C34.4245 6.5795 34.2834 6.18588 34.04 5.87717C33.7898 5.55997 33.4632 5.31057 33.1589 5.04928C32.5109 4.49286 31.8072 4.04182 31.1413 3.51109C30.5585 3.04651 29.8635 2.58531 29.1754 2.29983C28.3713 1.96625 27.4898 1.75457 26.6258 1.55834C26.1028 2.22542 25.6131 2.89773 25.2129 3.65456C24.4743 5.05147 24.2622 6.59184 24.2241 8.15623C24.186 9.7194 24.1962 11.2946 24.4678 12.839C24.5697 13.4188 24.7135 14.0341 25.0161 14.5465C25.1073 14.701 25.187 14.8666 25.267 15.0328C25.4193 15.3492 25.5726 15.6677 25.8081 15.9154C25.9091 16.0216 25.9691 16.142 26.021 16.2665C25.5155 16.0593 25.0203 15.8147 24.5191 15.5672L24.5146 15.5649C24.5112 15.5633 24.5079 15.5617 24.5046 15.56C24.4619 15.5389 24.4192 15.5178 24.3764 15.4967C23.4581 15.0439 22.5082 14.6284 21.5414 14.2551C21.4871 14.2342 21.4327 14.2133 21.3782 14.1926C20.3551 13.8034 19.314 13.4616 18.2722 13.173C17.7402 13.0256 17.2038 12.9144 16.663 12.8345C16.009 12.738 15.3487 12.6874 14.6823 12.6744C14.2764 12.6664 13.8648 12.6729 13.46 12.7237C13.3078 12.7428 13.1565 12.7681 13.0069 12.8014C11.3536 13.1684 10.2093 14.4852 9.2038 15.7696C8.80092 16.2841 8.46442 16.8456 8.18337 17.4365C7.64085 18.5771 7.30497 19.8273 7.09721 21.0615Z"
      fill="#F4F3B3"
    />
    <path
      d="M9.2038 15.7696C10.2093 14.4852 11.3536 13.1684 13.0069 12.8014C13.1565 12.7681 13.3078 12.7428 13.46 12.7237C13.46 12.5634 13.4618 12.3945 13.4636 12.2205L13.4636 12.2204C13.4644 12.1392 13.4653 12.057 13.4659 11.974C13.4708 11.3931 13.4677 10.7759 13.3982 10.2471C13.3266 9.70245 13.2261 9.1547 13.0999 8.61016C13.099 8.60621 13.0981 8.60225 13.0971 8.5983C12.8315 7.45516 12.453 6.32641 11.9923 5.27036C11.9203 5.10543 11.8413 4.94336 11.7565 4.78422C11.756 4.78334 11.7555 4.78246 11.7551 4.78158C11.6242 4.53605 11.4797 4.2975 11.3268 4.06615C11.3115 4.04305 11.2957 4.01811 11.2792 3.99216C11.2021 3.87074 11.1111 3.7273 10.9977 3.64653C10.8537 3.75088 10.7077 3.85272 10.5618 3.95458C10.3397 4.10954 10.1176 4.26452 9.90209 4.42836C9.61174 4.64914 9.40212 4.87258 9.18037 5.16218C8.78303 5.68106 8.42669 6.23619 8.09185 6.80712C8.22218 6.90017 8.34566 7.00187 8.45395 7.11901C8.13272 7.3644 7.64027 7.84274 7.28993 8.25234C7.24244 8.34093 7.19506 8.4295 7.14774 8.51797C7.00507 8.78468 6.86289 9.05048 6.71932 9.31341C6.68655 9.45133 6.66125 9.59221 6.63565 9.73481C6.62642 9.78621 6.61715 9.83784 6.60747 9.88964C6.4616 10.6705 6.41533 11.4513 6.41533 12.244C6.41533 13.044 6.48587 13.8177 6.65199 14.6006C6.67111 14.6907 6.6898 14.7838 6.70883 14.8786C6.79414 15.3034 6.88636 15.7626 7.05503 16.1435C7.20855 16.4902 7.41785 16.7415 7.67131 17.002C7.69 17.0212 7.70886 17.0409 7.72794 17.0608C7.86121 17.1998 8.00577 17.3506 8.18337 17.4365C8.46442 16.8456 8.80092 16.2841 9.2038 15.7696Z"
      fill="#F4F3B3"
    />
    <path
      fill-rule="evenodd"
      clip-rule="evenodd"
      d="M10.9977 3.64653C11.1461 3.5391 11.2924 3.42901 11.4346 3.31353C11.5864 3.19026 11.7339 3.06404 11.8812 2.93809C12.1959 2.6689 12.5091 2.40096 12.8593 2.16577C13.6036 1.66585 14.5112 1.51837 15.3806 1.39432C15.5393 1.37167 15.6973 1.34682 15.855 1.322C16.2404 1.26135 16.6247 1.20089 17.0162 1.17323C17.244 1.15715 17.4721 1.14743 17.7001 1.13772C17.9864 1.12554 18.2725 1.11335 18.5581 1.08856C19.6384 0.994783 20.722 0.994595 21.8058 1.00389C21.8561 1.00432 21.9063 1.00533 21.9564 1.00683C22.2447 1.01546 22.5321 1.04034 22.8194 1.06522C23.0858 1.08828 23.3522 1.11135 23.6195 1.12149C24.3889 1.15068 25.1205 1.2124 25.8737 1.38726C26.0453 1.42711 26.2188 1.4663 26.3934 1.50574C26.4707 1.5232 26.5482 1.54071 26.6258 1.55834C26.1028 2.22542 25.6131 2.89773 25.2129 3.65456C24.4743 5.05147 24.2622 6.59184 24.2241 8.15623C24.186 9.7194 24.1962 11.2946 24.4678 12.839C24.5697 13.4188 24.7135 14.0341 25.0161 14.5465C25.1073 14.701 25.187 14.8666 25.267 15.0328C25.4193 15.3492 25.5726 15.6677 25.8081 15.9154C25.9091 16.0216 25.9691 16.142 26.021 16.2665C25.5155 16.0593 25.0203 15.8147 24.5191 15.5672L24.5146 15.5649L24.5046 15.56C24.4619 15.5389 24.4192 15.5178 24.3764 15.4967C23.4581 15.0439 22.5082 14.6284 21.5414 14.2551C21.4907 14.0008 21.4493 13.5241 21.4159 13.1398C21.4025 12.9846 21.3903 12.8446 21.3794 12.7402C21.2723 11.7192 21.0013 10.4484 20.503 9.53237L20.4736 9.4783C19.7435 8.13589 19.0552 6.87021 17.6348 6.18763C17.5889 6.16556 17.5428 6.1435 17.4966 6.12147C16.1731 5.49022 14.7369 4.87942 13.2811 4.66356C12.7873 4.59034 12.2321 4.67814 11.7565 4.78422L11.7551 4.78158C11.6242 4.53605 11.4797 4.2975 11.3268 4.06615C11.3115 4.04305 11.2957 4.01811 11.2792 3.99216C11.2021 3.87074 11.1111 3.7273 10.9977 3.64653Z"
      fill="#E7E58F"
    />
    <path
      d="M15.0338 9.137C14.5273 8.71765 13.7455 8.62523 13.0999 8.61016C13.2261 9.1547 13.3266 9.70245 13.3982 10.2471C13.4677 10.7759 13.4708 11.3931 13.4659 11.974C13.4653 12.057 13.4644 12.1392 13.4636 12.2204L13.4636 12.2205C13.4618 12.3945 13.46 12.5634 13.46 12.7237C13.8648 12.6729 14.2764 12.6664 14.6823 12.6744C15.3487 12.6874 16.009 12.738 16.663 12.8345C16.6181 12.6993 16.5804 12.3823 16.5804 12.2392C16.5804 12.1339 16.5473 12.0357 16.5141 11.9373C16.5002 11.8963 16.4864 11.8552 16.4749 11.8135C16.4478 11.7153 16.4239 11.6163 16.4 11.5174C16.3592 11.3482 16.3183 11.1791 16.2617 11.0139C16.0049 10.2651 15.6497 9.64688 15.0338 9.137Z"
      fill="#E7E58F"
    />
    <path
      d="M13.0999 8.61016C13.7455 8.62523 14.5273 8.71765 15.0338 9.137C15.6497 9.64688 16.0049 10.2651 16.2617 11.0139C16.3183 11.1791 16.3592 11.3482 16.4 11.5174C16.4239 11.6163 16.4478 11.7153 16.4749 11.8135C16.4864 11.8552 16.5002 11.8963 16.5141 11.9373C16.5473 12.0357 16.5804 12.1339 16.5804 12.2392C16.5804 12.3823 16.6181 12.6993 16.663 12.8345C17.2038 12.9144 17.7402 13.0256 18.2722 13.173C19.314 13.4616 20.3551 13.8034 21.3782 14.1926C21.4327 14.2133 21.4871 14.2342 21.5414 14.2551C21.4907 14.0008 21.4493 13.5241 21.4159 13.1398C21.4025 12.9846 21.3903 12.8446 21.3794 12.7402C21.2723 11.7192 21.0013 10.4484 20.503 9.53237L20.4736 9.4783C19.7435 8.13589 19.0552 6.87021 17.6348 6.18763C17.5889 6.16556 17.5428 6.1435 17.4966 6.12147C16.1731 5.49022 14.7369 4.87942 13.2811 4.66356C12.7873 4.59034 12.2321 4.67814 11.7565 4.78422C11.8413 4.94336 11.9203 5.10543 11.9923 5.27036C12.453 6.32641 12.8315 7.45516 13.0971 8.5983L13.0999 8.61016Z"
      fill="#F4F3B3"
    />
    <path
      d="M16.2195 15.6614C15.8326 15.6456 15.4421 15.6474 15.0549 15.6543C14.9701 15.6558 14.5382 15.6874 14.446 15.7398C14.445 15.7403 14.4442 15.7408 14.4433 15.7413C14.0128 15.9963 13.6104 16.3116 13.235 16.6546L13.3326 16.7527C14.797 17.9721 15.8233 19.6842 16.5569 21.4331C17.0255 22.55 17.1659 23.7189 17.1709 24.9187C17.1729 25.4133 17.1963 25.962 17.3529 26.4334L17.5007 26.8194C18.5858 27.036 19.6831 27.1922 20.756 27.4824C20.896 27.5202 21.0368 27.5591 21.1778 27.5993V27.5059C21.1778 26.0779 21.084 24.6758 20.7748 23.277C20.3713 21.4522 19.8943 19.619 19.336 17.8346C19.2309 17.4985 19.0589 17.1453 18.8909 16.8005C18.7804 16.5737 18.6717 16.3504 18.5848 16.1379C18.5157 16.1152 18.4464 16.0929 18.3771 16.0712C17.6771 15.8522 16.9638 15.6917 16.2195 15.6614Z"
      fill="#F4F3B3"
    />
    <path
      d="M24.8661 18.1803C23.0469 17.8056 21.3525 17.1703 19.6266 16.5128C19.2807 16.381 18.9342 16.2531 18.5848 16.1379C18.6717 16.3504 18.7804 16.5737 18.8909 16.8005C19.0589 17.1453 19.2309 17.4985 19.336 17.8346C19.8943 19.619 20.3713 21.4522 20.7748 23.277C21.084 24.6758 21.1778 26.0779 21.1778 27.5059V27.5993C22.1357 27.8725 23.1089 28.209 23.961 28.7228L24.0038 28.3949C24.0272 28.254 24.0826 28.1233 24.1491 27.9951C24.2106 27.8764 24.2868 27.7676 24.3631 27.6588C24.405 27.599 24.447 27.5392 24.4865 27.4777C24.7932 27.0004 24.9867 26.4606 25.1379 25.916C25.1638 25.8229 25.1881 25.7296 25.2109 25.6363C25.5201 24.3731 25.5612 23.091 25.5648 21.7984C25.5654 21.5884 25.565 21.3782 25.5646 21.1677L25.5644 21.0427C25.5642 20.9205 25.5649 20.7978 25.5656 20.6749C25.5686 20.1227 25.5717 19.5655 25.4941 19.02C25.4778 18.9054 25.4613 18.8446 25.4415 18.7719C25.4254 18.7125 25.4071 18.6452 25.385 18.5341L25.2864 18.264C25.1462 18.237 25.0061 18.2092 24.8661 18.1803Z"
      fill="#F4F3B3"
    />
    <path
      fill-rule="evenodd"
      clip-rule="evenodd"
      d="M25.385 18.5341L25.2864 18.264C26.5429 18.5052 27.8092 18.6701 29.0807 18.7582L28.3482 18.7848C28.1307 18.7848 27.9063 18.7958 27.6921 18.8365C27.4519 18.8823 27.2145 19.0606 27.0027 19.2198C26.9403 19.2667 26.8801 19.3119 26.8227 19.3516C26.6326 19.4831 26.4071 19.6965 26.258 19.8761C26.2196 19.9224 26.1882 19.9764 26.1567 20.0304C26.1051 20.1192 26.0533 20.2083 25.9698 20.2642C25.9386 20.2851 25.7361 20.5783 25.7331 20.6052C25.7283 20.6483 25.722 20.6898 25.7158 20.7311C25.7033 20.8132 25.6909 20.8946 25.6909 20.9862L25.5648 21.7984C25.5654 21.5884 25.565 21.3782 25.5646 21.1677L25.5644 21.0427C25.5642 20.9205 25.5649 20.7978 25.5656 20.6749C25.5686 20.1227 25.5717 19.5655 25.4941 19.02C25.4778 18.9054 25.4613 18.8446 25.4415 18.7719C25.4254 18.7125 25.4071 18.6452 25.385 18.5341ZM25.2109 25.6363C25.1881 25.7296 25.1638 25.8229 25.1379 25.916C24.9867 26.4606 24.7932 27.0004 24.4865 27.4777C24.447 27.5392 24.405 27.599 24.3631 27.6588C24.2868 27.7676 24.2106 27.8764 24.1491 27.9951C24.0826 28.1233 24.0272 28.254 24.0038 28.3949L23.961 28.7228C24.582 29.0973 25.1388 29.566 25.5785 30.173C25.8102 30.493 26.0406 30.8907 26.215 31.3033C26.4428 31.2474 26.6697 31.1902 26.8954 31.1326C27.2552 31.0408 27.5935 30.9413 27.9311 30.7822C28.2373 30.6378 28.5027 30.4477 28.7678 30.2579C29.0129 30.0824 29.2576 29.9071 29.5339 29.7685C30.3064 29.3808 31.0534 28.9745 31.6709 28.362C31.8654 28.1692 32.0727 27.9829 32.2811 27.7956C32.4645 27.6308 32.6488 27.4652 32.8258 27.2938L32.3552 27.3789C32.2721 27.5039 32.1409 27.5526 32.0074 27.6021C31.9653 27.6178 31.9229 27.6335 31.8818 27.6517C31.8256 27.6766 31.7648 27.7017 31.7022 27.7275C31.5045 27.8091 31.2879 27.8983 31.1343 28.0163C30.5609 28.4564 29.8367 28.4478 29.1367 28.4395C29.042 28.4384 28.9477 28.4373 28.8543 28.4373C27.4549 28.4373 24.6876 27.7957 25.1848 25.8548L25.2109 25.6363ZM17.5007 26.8194L17.3529 26.4334C17.1963 25.962 17.1729 25.4133 17.1709 24.9187C17.1659 23.7189 17.0255 22.55 16.5569 21.4331C15.8233 19.6842 14.797 17.9721 13.3326 16.7527L13.235 16.6546C12.9812 16.8865 12.7397 17.131 12.5101 17.3783C11.7817 18.1629 11.7327 19.4139 11.7884 20.4312C11.8641 21.8144 12.2078 23.1811 12.9952 24.326C13.3119 24.7865 13.6584 25.2402 14.1012 25.5867C14.6341 26.0037 15.275 26.2392 15.9149 26.4334C16.4377 26.592 16.9677 26.713 17.5007 26.8194Z"
      fill="#E7E58F"
    />
    <path
      d="M36.3949 17.3077C36.2018 17.6019 35.9973 17.906 35.7599 18.1662C35.3275 18.6402 34.2182 18.7106 33.6338 18.7477C33.5848 18.7508 33.5395 18.7537 33.4987 18.7566C32.6391 18.8166 31.7794 18.8418 30.9211 18.8322C30.3068 18.8254 29.6932 18.8007 29.0807 18.7582L28.3482 18.7848C28.1307 18.7848 27.9063 18.7958 27.6921 18.8365C27.4519 18.8823 27.2145 19.0606 27.0027 19.2198C26.9403 19.2667 26.8801 19.3119 26.8227 19.3516C26.6326 19.4831 26.4071 19.6965 26.258 19.8761C26.2196 19.9224 26.1882 19.9764 26.1567 20.0304C26.1051 20.1192 26.0533 20.2083 25.9698 20.2642C25.9386 20.2851 25.7361 20.5783 25.7331 20.6052C25.7283 20.6483 25.722 20.6898 25.7158 20.7311C25.7033 20.8132 25.6909 20.8946 25.6909 20.9862L25.5648 21.7984C25.5612 23.091 25.5201 24.3731 25.2109 25.6363L25.1848 25.8548C24.6876 27.7957 27.4549 28.4373 28.8543 28.4373C28.9477 28.4373 29.042 28.4384 29.1367 28.4395C29.8367 28.4478 30.5609 28.4564 31.1343 28.0163C31.2879 27.8983 31.5045 27.8091 31.7022 27.7275C31.7648 27.7017 31.8256 27.6766 31.8818 27.6517C31.9229 27.6335 31.9653 27.6178 32.0074 27.6021C32.1409 27.5526 32.2721 27.5039 32.3552 27.3789L32.8258 27.2938C33.0842 27.0435 33.3271 26.7808 33.5291 26.4898C34.0282 25.7711 34.4683 24.9451 34.839 24.152C34.9238 23.9705 35.0092 23.7919 35.0938 23.6148C35.477 22.8132 35.8463 22.0405 36.088 21.1603C36.242 20.5992 36.3087 20.0306 36.3759 19.4591C36.4119 19.1518 36.4481 18.8437 36.498 18.5355C36.5468 18.234 36.5983 17.9319 36.6574 17.6323C36.6845 17.4946 36.7266 17.362 36.7685 17.2297C36.8314 17.0313 36.894 16.8338 36.9058 16.621C36.9181 16.3973 36.9489 16.1299 36.9805 15.8552C37.0244 15.4732 36.9805 15.0772 36.9805 14.7653C36.9053 14.3478 36.949 13.9248 36.9031 13.5014L36.9031 13.5012C36.8916 13.3955 36.8802 13.2898 36.8683 13.1841V14.7653C36.8683 14.8224 36.8684 14.8794 36.8686 14.9363C36.8708 15.772 36.8729 16.5798 36.3949 17.3077Z"
      fill="#F4F3B3"
    />
    <path
      d="M8.45395 7.11901C8.34566 7.00187 8.22218 6.90017 8.09185 6.80712C7.81342 7.28186 7.54985 7.76752 7.28993 8.25234C7.64027 7.84274 8.13272 7.3644 8.45395 7.11901Z"
      fill="#E7E58F"
    />
    <path
      d="M7.30834 25.2606C7.13398 24.1196 6.90478 22.2046 7.09721 21.0615C7.30497 19.8273 7.64085 18.5771 8.18337 17.4365M7.30834 25.2606C7.06108 24.9145 6.81543 24.5653 6.61216 24.1943C6.23524 23.5065 6.06919 22.7482 5.88106 21.9929C5.56554 20.7261 5.29096 19.42 5.18277 18.1168C5.10893 17.2275 5.10184 16.3322 5.10779 15.4403C5.11213 14.7889 5.02802 13.5188 5 12.8672C5.26838 11.7019 6.02104 10.5758 6.58873 9.55095C6.63242 9.47207 6.67593 9.39287 6.71932 9.31341M7.30834 25.2606C7.4185 25.4148 7.52897 25.5684 7.63616 25.7231C7.97677 26.2145 8.28778 26.701 8.69765 27.139C9.01833 27.4816 9.35943 27.7799 9.71931 28.0798C10.2335 28.5082 10.7168 28.98 11.2869 29.3357M24.3764 15.4967C23.4581 15.0439 22.5082 14.6284 21.5414 14.2551M24.3764 15.4967C24.4192 15.5178 24.4619 15.5389 24.5046 15.56M24.3764 15.4967C23.4065 15.0185 22.4013 14.5818 21.3782 14.1926M27.9686 2.90899C28.83 3.42777 29.7962 3.76475 30.6563 4.28724C31.2225 4.63121 31.717 5.07921 32.1958 5.53379C32.6082 5.92532 33.0558 6.30515 33.4026 6.75916C34.1226 7.70182 34.713 8.84495 34.7546 10.0472C34.778 10.7221 34.789 11.4203 34.6656 12.0864C34.511 12.9207 34.2121 13.7456 34.0001 14.5677C33.8968 14.9682 33.7789 15.3831 33.501 15.7014C33.1665 16.0844 32.6118 16.2434 32.1466 16.3881C30.9291 16.7669 29.629 16.8811 28.3576 16.8279C27.523 16.793 26.7611 16.5698 26.021 16.2665M15.5259 15.3133C15.142 15.456 14.8047 15.5279 14.446 15.7398M11.2869 29.3357C13.3326 28.362 17.7053 29.9837 18.3659 30.8692C18.574 31.1481 18.6936 31.4197 18.7238 31.7413M11.2869 29.3357C12.5293 30.1109 14.002 30.5847 15.404 30.968C15.555 31.0093 15.7061 31.0512 15.8574 31.0933C16.5919 31.2973 17.3305 31.5025 18.08 31.6336C18.2926 31.6708 18.5074 31.707 18.7238 31.7413M19.6266 16.5128C21.3525 17.1703 23.0469 17.8056 24.8661 18.1803C25.0061 18.2092 25.1462 18.237 25.2864 18.264M19.6266 16.5128C19.2807 16.381 18.9342 16.2531 18.5848 16.1379M19.6266 16.5128C19.2123 16.3549 18.7971 16.2026 18.3771 16.0712M36.8683 12.9848V13.1841M18.5848 16.1379C18.5157 16.1152 18.4464 16.0929 18.3771 16.0712M18.5848 16.1379C18.6717 16.3504 18.7804 16.5737 18.8909 16.8005C19.0589 17.1453 19.2309 17.4985 19.336 17.8346C19.8943 19.619 20.3713 21.4522 20.7748 23.277C21.084 24.6758 21.1778 26.0779 21.1778 27.5059V27.5993M25.5644 21.0427C25.5642 20.9205 25.5649 20.7978 25.5656 20.6749C25.5686 20.1227 25.5717 19.5655 25.4941 19.02C25.4778 18.9054 25.4613 18.8446 25.4415 18.7719C25.4254 18.7125 25.4071 18.6452 25.385 18.5341L25.2864 18.264M25.5644 21.0427C25.5645 21.0843 25.5645 21.126 25.5646 21.1677M25.5644 21.0427L25.5646 21.1677M34.675 18.7848C34.675 19.8199 34.5869 20.7892 33.9767 21.6683C33.6242 22.1761 33.1225 22.555 32.5848 22.8513C32.344 22.9841 32.1237 23.1498 31.8654 23.2488C31.5537 23.3683 31.231 23.357 30.9023 23.357C30.346 23.357 29.8038 23.3853 29.4026 22.9243C29.1206 22.6001 29.1377 22.0946 29.1515 21.6874L29.1519 21.6754C29.1736 21.0344 29.328 20.4713 29.8338 20.0548C30.1111 19.8265 30.881 19.4411 30.9211 19.0388V18.8322M8.45395 7.11901C8.7395 7.42788 8.80803 7.85431 8.90386 8.24796C9.00942 8.68157 9.19342 9.09682 9.22254 9.54624C9.26047 10.1316 9.16012 10.6931 8.98822 11.2491M8.45395 7.11901C8.34566 7.00187 8.22218 6.90017 8.09185 6.80712M8.45395 7.11901C8.13272 7.3644 7.64027 7.84274 7.28993 8.25234M8.27118 17.4724C8.24101 17.4623 8.21177 17.4502 8.18337 17.4365M9.07257 11.1221C8.97746 11.8262 9.05483 12.3779 9.42172 12.9966C9.62546 13.3401 9.89557 13.8699 10.2536 14.0855M10.9706 3.62869C10.9798 3.63422 10.9888 3.64018 10.9977 3.64653M11.9923 5.27036C11.9203 5.10543 11.8413 4.94336 11.7565 4.78422M11.9923 5.27036C12.453 6.32641 12.8315 7.45516 13.0971 8.5983M11.9923 5.27036C11.9199 5.10451 11.8404 4.94156 11.7551 4.78158M13.3982 10.2471C13.3266 9.70245 13.2261 9.1547 13.0999 8.61016M13.3982 10.2471C13.4677 10.7759 13.4708 11.3931 13.4659 11.974C13.4653 12.057 13.4644 12.1392 13.4636 12.2204L13.4636 12.2205C13.4618 12.3945 13.46 12.5634 13.46 12.7237M13.3982 10.2471C13.3261 9.6985 13.2246 9.14674 13.0971 8.5983M13.46 12.7237C13.3078 12.7428 13.1565 12.7681 13.0069 12.8014C11.3536 13.1684 10.2093 14.4852 9.2038 15.7696C8.80092 16.2841 8.46442 16.8456 8.18337 17.4365M13.46 12.7237C13.8648 12.6729 14.2764 12.6664 14.6823 12.6744C15.3487 12.6874 16.009 12.738 16.663 12.8345M13.0999 8.61016C13.7455 8.62523 14.5273 8.71765 15.0338 9.137C15.6497 9.64688 16.0049 10.2651 16.2617 11.0139C16.3183 11.1791 16.3592 11.3482 16.4 11.5174C16.4239 11.6163 16.4478 11.7153 16.4749 11.8135C16.4864 11.8552 16.5002 11.8963 16.5141 11.9373C16.5473 12.0357 16.5804 12.1339 16.5804 12.2392C16.5804 12.3823 16.6181 12.6993 16.663 12.8345M13.0999 8.61016C13.099 8.60621 13.0981 8.60225 13.0971 8.5983M13.0999 8.61016L13.0971 8.5983M16.663 12.8345C17.2038 12.9144 17.7402 13.0256 18.2722 13.173C19.314 13.4616 20.3551 13.8034 21.3782 14.1926M11.7565 4.78422C12.2321 4.67814 12.7873 4.59034 13.2811 4.66356C14.7369 4.87942 16.1731 5.49022 17.4966 6.12147M11.7565 4.78422C11.756 4.78334 11.7555 4.78246 11.7551 4.78158M11.7565 4.78422L11.7551 4.78158M20.503 9.53237C21.0013 10.4484 21.2723 11.7192 21.3793 12.7402C21.3903 12.8446 21.4025 12.9846 21.4159 13.1398C21.4493 13.5241 21.4907 14.0008 21.5414 14.2551M20.503 9.53237C20.4778 9.07708 20.5518 9.02614 20.503 8.57253C20.3997 7.6133 20.606 6.64396 20.6647 5.68666C20.7436 4.39933 20.8441 3.20713 21.3629 2.00348C21.4921 1.7039 21.6788 1.25654 21.9564 1.00683M20.503 9.53237L20.4736 9.4783M20.503 9.53237C20.4932 9.51433 20.4834 9.49631 20.4736 9.4783M21.5414 14.2551C21.4871 14.2342 21.4327 14.2133 21.3782 14.1926M17.0443 2.01994C17.0382 2.14271 16.9972 2.2467 16.9623 2.36333C16.8734 2.66096 16.9155 3.01389 16.9272 3.31823C16.9648 4.29632 17.0043 5.26981 17.4966 6.12147M17.5505 6.21115C17.532 6.18141 17.514 6.15152 17.4966 6.12147M26.1549 16.5833C26.1028 16.4787 26.0647 16.3711 26.021 16.2665M29.9931 4.17905C29.6978 7.35148 29.1689 10.4969 29.801 13.6692C29.9418 14.376 30.1328 15.064 30.3142 15.7601C30.3917 16.0576 30.5743 16.3013 30.668 16.5833M8.18337 17.4365C8.00577 17.3506 7.86121 17.1998 7.72794 17.0608C7.70886 17.0409 7.69 17.0212 7.67131 17.002C7.41785 16.7415 7.20855 16.4902 7.05503 16.1435C6.88636 15.7626 6.79414 15.3034 6.70883 14.8786C6.6898 14.7838 6.67111 14.6907 6.65199 14.6006C6.48587 13.8177 6.41533 13.044 6.41533 12.244C6.41533 11.4513 6.4616 10.6705 6.60747 9.88963C6.61715 9.83784 6.62642 9.78621 6.63565 9.73481C6.66125 9.59221 6.68655 9.45134 6.71932 9.31341M6.71932 9.31341C6.77781 9.06726 6.86012 8.83052 7.01051 8.61016C7.08293 8.50406 7.17935 8.38162 7.28993 8.25234M6.71932 9.31341C6.86289 9.05048 7.00507 8.78468 7.14774 8.51797C7.19506 8.4295 7.24244 8.34093 7.28993 8.25234M18.7238 31.7413C19.7792 31.9085 20.8731 32.0301 21.9277 31.9934C23.3682 31.9434 24.8099 31.6479 26.215 31.3033M26.215 31.3033C26.0406 30.8907 25.8102 30.493 25.5785 30.173C25.1388 29.566 24.582 29.0973 23.961 28.7228M26.215 31.3033C26.4428 31.2474 26.6697 31.1902 26.8954 31.1326C27.2552 31.0408 27.5935 30.9413 27.9311 30.7822C28.2373 30.6378 28.5027 30.4477 28.7678 30.2579C29.0129 30.0824 29.2576 29.9071 29.5339 29.7685C30.3064 29.3808 31.0534 28.9745 31.6709 28.362C31.8654 28.1692 32.0727 27.9829 32.2811 27.7956C32.4645 27.6308 32.6488 27.4652 32.8258 27.2938M14.446 15.7398C14.445 15.7403 14.4442 15.7408 14.4433 15.7413C14.0128 15.9963 13.6104 16.3116 13.235 16.6546M14.446 15.7398C14.5382 15.6874 14.9701 15.6558 15.0549 15.6543C15.4421 15.6474 15.8326 15.6456 16.2195 15.6614C16.9638 15.6917 17.6771 15.8522 18.3771 16.0712M36.8683 13.1841V14.7653C36.8683 14.8224 36.8684 14.8794 36.8686 14.9363C36.8708 15.772 36.8729 16.5798 36.3949 17.3077C36.2018 17.6019 35.9973 17.906 35.7599 18.1662C35.3275 18.6402 34.2182 18.7106 33.6338 18.7477C33.5848 18.7508 33.5395 18.7537 33.4987 18.7566C32.6391 18.8166 31.7794 18.8418 30.9211 18.8322M36.8683 13.1841C36.7951 12.5352 36.7046 11.8886 36.491 11.2632C35.9821 9.7734 35.3057 8.332 34.6 6.92851C34.4245 6.5795 34.2834 6.18588 34.04 5.87717C33.7898 5.55997 33.4632 5.31057 33.1589 5.04928C32.5109 4.49286 31.8072 4.04182 31.1413 3.51109C30.5585 3.04651 29.8635 2.58531 29.1754 2.29983C28.3713 1.96625 27.4898 1.75457 26.6258 1.55834M36.8683 13.1841C36.8802 13.2898 36.8916 13.3955 36.9031 13.5012L36.9031 13.5014C36.949 13.9248 36.9053 14.3478 36.9805 14.7653C36.9805 15.0772 37.0244 15.4732 36.9805 15.8552C36.9489 16.1299 36.9181 16.3973 36.9058 16.621C36.894 16.8338 36.8314 17.0313 36.7685 17.2297C36.7266 17.362 36.6845 17.4946 36.6574 17.6323C36.5983 17.9319 36.5468 18.234 36.498 18.5355C36.4481 18.8437 36.4119 19.1518 36.3759 19.4591C36.3087 20.0306 36.242 20.5992 36.088 21.1603C35.8463 22.0405 35.477 22.8132 35.0938 23.6148C35.0092 23.7919 34.9238 23.9705 34.839 24.152C34.4683 24.9451 34.0282 25.7711 33.5291 26.4898C33.3271 26.7808 33.0842 27.0435 32.8258 27.2938M26.6258 1.55834C26.1028 2.22542 25.6131 2.89773 25.2129 3.65456C24.4743 5.05147 24.2622 6.59184 24.2241 8.15623C24.186 9.7194 24.1962 11.2946 24.4678 12.839C24.5697 13.4188 24.7135 14.0341 25.0161 14.5465C25.1073 14.701 25.187 14.8666 25.267 15.0328C25.4193 15.3492 25.5726 15.6677 25.8081 15.9154C25.9091 16.0216 25.9691 16.142 26.021 16.2665M26.6258 1.55834C26.5482 1.54071 26.4707 1.5232 26.3934 1.50574C26.2188 1.4663 26.0453 1.42711 25.8737 1.38726C25.1205 1.2124 24.3889 1.15068 23.6195 1.12149C23.3522 1.11135 23.0858 1.08828 22.8194 1.06522C22.5321 1.04034 22.2447 1.01546 21.9564 1.00683M26.021 16.2665C25.5155 16.0593 25.0203 15.8147 24.5191 15.5672M21.9564 1.00683C21.9063 1.00533 21.8561 1.00432 21.8058 1.00389C20.722 0.994595 19.6384 0.994783 18.5581 1.08856C18.2725 1.11335 17.9864 1.12554 17.7001 1.13772C17.4721 1.14743 17.244 1.15715 17.0162 1.17323C16.6247 1.20089 16.2404 1.26135 15.855 1.322C15.6973 1.34682 15.5393 1.37167 15.3806 1.39432C14.5112 1.51837 13.6036 1.66585 12.8593 2.16577C12.5091 2.40096 12.1959 2.6689 11.8812 2.93809C11.7339 3.06404 11.5864 3.19026 11.4346 3.31353C11.2924 3.42901 11.1461 3.5391 10.9977 3.64653M10.9977 3.64653C10.8537 3.75088 10.7077 3.85272 10.5618 3.95458C10.3397 4.10954 10.1176 4.26452 9.90209 4.42836C9.61174 4.64914 9.40212 4.87258 9.18037 5.16218C8.78303 5.68106 8.42669 6.23619 8.09185 6.80712M10.9977 3.64653C11.1111 3.7273 11.2021 3.87074 11.2792 3.99216C11.2957 4.01811 11.3115 4.04305 11.3268 4.06615C11.4797 4.2975 11.6242 4.53605 11.7551 4.78158M8.09185 6.80712C7.81342 7.28186 7.54985 7.76752 7.28993 8.25234M24.5191 15.5672L24.5146 15.5649M24.5191 15.5672C24.5176 15.5664 24.5161 15.5657 24.5146 15.5649M24.5146 15.5649L24.5046 15.56M24.5146 15.5649C24.5112 15.5633 24.5079 15.5617 24.5046 15.56M20.4736 9.4783C19.7435 8.13589 19.0552 6.87021 17.6348 6.18763C17.5889 6.16556 17.5428 6.1435 17.4966 6.12147M17.5007 26.8194C16.9677 26.713 16.4377 26.592 15.9149 26.4334C15.275 26.2392 14.6341 26.0037 14.1012 25.5867C13.6584 25.2402 13.3119 24.7865 12.9952 24.326C12.2078 23.1811 11.8641 21.8144 11.7884 20.4312C11.7327 19.4139 11.7817 18.1629 12.5101 17.3783C12.7397 17.131 12.9812 16.8865 13.235 16.6546M17.5007 26.8194C18.5858 27.036 19.6831 27.1922 20.756 27.4824C20.896 27.5202 21.0368 27.5591 21.1778 27.5993M17.5007 26.8194L17.3529 26.4334C17.1963 25.962 17.1729 25.4133 17.1709 24.9187C17.1659 23.7189 17.0255 22.55 16.5569 21.4331C15.8233 19.6842 14.797 17.9721 13.3326 16.7527L13.235 16.6546M21.1778 27.5993C22.1357 27.8725 23.1089 28.209 23.961 28.7228M23.961 28.7228L24.0038 28.3949C24.0272 28.254 24.0826 28.1233 24.1491 27.9951C24.2106 27.8764 24.2868 27.7676 24.3631 27.6588C24.405 27.599 24.447 27.5392 24.4865 27.4777C24.7932 27.0004 24.9867 26.4606 25.1379 25.916C25.1638 25.8229 25.1881 25.7296 25.2109 25.6363M25.2864 18.264C26.5429 18.5052 27.8092 18.6701 29.0807 18.7582M25.5646 21.1677C25.565 21.3782 25.5654 21.5884 25.5648 21.7984M25.5648 21.7984L25.6909 20.9862C25.6909 20.8946 25.7033 20.8133 25.7158 20.7311C25.722 20.6898 25.7283 20.6483 25.7331 20.6052C25.7361 20.5783 25.9386 20.2851 25.9698 20.2642C26.0533 20.2083 26.1051 20.1192 26.1567 20.0304C26.1882 19.9764 26.2196 19.9224 26.258 19.8761C26.4071 19.6965 26.6326 19.4831 26.8227 19.3516C26.8801 19.3119 26.9403 19.2667 27.0027 19.2198C27.2145 19.0606 27.4519 18.8823 27.6921 18.8365C27.9063 18.7958 28.1307 18.7848 28.3482 18.7848L29.0807 18.7582M25.5648 21.7984C25.5612 23.091 25.5201 24.3731 25.2109 25.6363M29.0807 18.7582C29.6932 18.8007 30.3068 18.8254 30.9211 18.8322M32.8258 27.2938L32.3552 27.3789C32.2721 27.5039 32.1409 27.5526 32.0074 27.6021C31.9653 27.6178 31.9229 27.6335 31.8818 27.6517C31.8256 27.6766 31.7648 27.7017 31.7022 27.7275C31.5045 27.8091 31.2879 27.8984 31.1343 28.0163C30.5609 28.4564 29.8367 28.4478 29.1367 28.4395C29.042 28.4384 28.9477 28.4373 28.8543 28.4373C27.4549 28.4373 24.6876 27.7957 25.1848 25.8548L25.2109 25.6363"
      stroke="black"
      stroke-linecap="round"
    />
  </g>
  <defs>
    <filter
      id="filter0_d_317_1839"
      x="0.497559"
      y="0.5"
      width="41.0024"
      height="40"
      filterUnits="userSpaceOnUse"
      color-interpolation-filters="sRGB"
    >
      <feFlood flood-opacity="0" result="BackgroundImageFix" />
      <feColorMatrix
        in="SourceAlpha"
        type="matrix"
        values="0 0 0 0 0 0 0 0 0 0 0 0 0 0 0 0 0 0 127 0"
        result="hardAlpha"
      />
      <feOffset dy="4" />
      <feGaussianBlur stdDeviation="2" />
      <feComposite in2="hardAlpha" operator="out" />
      <feColorMatrix type="matrix" values="0 0 0 0 0 0 0 0 0 0 0 0 0 0 0 0 0 0 0.25 0" />
      <feBlend mode="normal" in2="BackgroundImageFix" result="effect1_dropShadow_317_1839" />
      <feBlend mode="normal" in="SourceGraphic" in2="effect1_dropShadow_317_1839" result="shape" />
    </filter>
  </defs>
</svg>
