<svg viewBox="0 0 35 33" fill="none" xmlns="http://www.w3.org/2000/svg">
  <g filter="url(#filter0_d_342_68)">
    <path
      d="M30.8154 14.5334C30.7818 14.1232 30.6049 13.738 30.3161 13.4457C30.1164 13.1896 29.6282 12.9186 29.5136 12.6142C29.1142 11.5673 29.9241 11.3186 30.4234 10.784C31.1187 10.0415 31.2334 9.29907 30.5011 8.55661C30.342 8.39327 29.8945 8.24478 29.7614 8.04432C29.1548 7.05684 29.987 6.75615 30.3827 6.18817C30.6573 5.85473 30.8203 5.44301 30.8487 5.01137C30.846 4.79177 30.7908 4.57604 30.6878 4.38226C30.5849 4.18848 30.4371 4.02231 30.257 3.89768C30.024 3.6935 29.5506 3.67123 29.362 3.44478C28.7443 2.70232 29.325 1.99327 29.913 1.66288C30.7193 1.20626 29.8058 0.627144 29.717 0.608583C28.4115 0.0294648 21.5805 0.10371 19.5908 0.0777243H18.1521C14.3945 0.0777243 9.78996 -0.419723 6.23578 1.10232C6.12483 1.10232 5.34816 1.59234 5.97689 2.17146C6.54645 2.69489 6.81643 3.23689 6.28756 3.71206C6.05456 3.91995 5.63664 3.9051 5.37405 4.08329C5.18114 4.18148 5.01379 4.32358 4.88536 4.49827C4.75692 4.67295 4.67097 4.87536 4.63437 5.08933C4.39397 6.48886 6.52056 7.18306 5.2705 8.43039C4.62327 9.07262 3.79113 9.29907 4.24234 10.4128C4.49013 11.0476 5.42953 11.4188 5.59226 12.0387C5.82526 12.9408 4.69354 13.3566 4.29412 13.9617C3.72456 14.8267 4.04632 15.4466 4.71204 16.1074C4.99978 16.352 5.27272 16.6135 5.52938 16.8907C6.08785 17.6109 6.05826 17.7371 5.37405 18.268C5.01921 18.4863 4.69885 18.7565 4.42356 19.0698C3.80223 19.9719 4.36808 20.5325 5.06708 21.1562C5.43692 21.4903 6.17661 21.9729 6.00648 22.3515C5.86594 22.6596 4.94873 22.9826 4.66026 23.2759C4.61023 23.3238 4.57036 23.3814 4.54303 23.4452C4.51571 23.509 4.50149 23.5777 4.50123 23.6471C4.48501 23.7498 4.50306 23.8549 4.55256 23.9462C4.60205 24.0375 4.68022 24.1099 4.77491 24.152C6.17661 24.8684 7.78912 24.6123 9.32026 24.668C11.6687 24.7534 14.0135 24.8276 16.3472 24.8276C18.5786 24.8276 20.81 24.7806 23.0414 24.6865C24.935 24.6049 26.9987 25.3919 28.8257 24.7385C29.6504 24.4193 29.4766 22.8824 28.4965 22.3701C27.9529 22.0879 27.8012 22.3107 28.1267 21.7724C28.374 21.5154 28.6567 21.2954 28.9662 21.119C29.3841 20.7998 30.0314 20.4768 30.2274 19.9422C30.6897 18.6838 29.177 18.5093 28.7887 17.6406C28.2265 16.4081 30.8154 15.8587 30.8154 14.5334ZM21.9392 4.63271C23.0858 5.8355 20.6263 6.96404 21.4141 8.40812C21.7654 9.05035 22.9193 9.18028 22.6013 10.1158C22.3941 10.7283 21.4141 11.029 21.1848 11.764C20.7077 13.3084 23.0118 13.8466 22.0798 15.2684C21.5065 16.1445 19.8607 16.6086 20.4858 17.9673C20.7336 18.5167 21.5176 18.7097 21.7469 19.2258C22.2018 20.2021 20.7299 20.5659 20.1603 21.0633C18.9065 22.1362 20.434 22.7042 20.4599 23.6211C19.9014 23.6211 19.3504 23.6434 18.7808 23.6508C18.84 23.3056 18.6181 23.0197 18.3666 22.474C17.5936 20.8072 20.2158 20.8889 19.9273 19.3037C19.6832 17.9005 17.564 17.9339 18.9768 16.4007C19.6462 15.6582 20.826 15.2647 20.3785 14.0508C20.1566 13.442 19.3688 13.1487 19.1617 12.5993C18.6957 11.3742 20.0272 11.0921 20.471 10.3088C21.1182 9.16172 20.1862 8.87587 19.5981 8.14083C18.5774 6.86752 20.974 5.89489 20.4488 4.39884C20.2639 3.86798 19.9347 3.92738 19.6425 3.571C19.1802 3.00302 18.9657 1.78909 19.5316 1.18028C20.2121 1.18028 20.8926 1.18028 21.5694 1.21369C21.0035 1.71856 20.4599 2.31995 20.3341 2.83225C19.968 4.18724 21.292 3.94594 21.9392 4.63271ZM16.0773 4.72923C15.4005 5.41972 14.3612 5.31578 14.6977 6.65963C14.8494 7.26102 15.6076 7.56914 15.737 8.10371C15.9848 9.14316 14.7865 9.2174 14.3612 9.80023C13.714 10.7135 14.4056 11.4077 15.001 12.087C16.4471 13.7353 14.0579 13.9432 13.9692 15.4615C13.8878 16.9464 16.2215 17.3436 14.9344 19.0067C14.4758 19.6044 13.3737 19.9831 13.7731 20.9446C13.9396 21.3418 14.3612 21.4234 14.6349 21.687C15.4115 22.4295 15.0972 22.9492 14.7569 23.6731L13.4329 23.6582C13.9433 23.3093 14.2835 22.9455 13.8027 22.0916C13.5032 21.5534 12.3234 21.2378 12.168 20.681C11.9683 19.8754 13.2776 19.4671 13.6252 18.9176C14.3649 17.7186 13.0963 17.0615 12.4787 16.2077C12.0349 15.6063 11.7945 15.5729 12.3049 14.7561C12.5083 14.4332 12.9484 14.255 13.1666 13.9172C13.3116 13.7277 13.4111 13.5072 13.4573 13.2728C13.5035 13.0384 13.4951 12.7965 13.4329 12.5659C13.2517 11.868 12.2494 11.4077 12.1237 10.8285C11.9276 9.92274 13.1074 9.81879 13.4773 9.20626C13.5922 8.99876 13.6597 8.76825 13.6751 8.53136C13.6904 8.29447 13.6532 8.05712 13.566 7.83643C13.2258 6.85267 11.9535 6.21044 13.2147 5.43086C14.2096 4.81833 15.1601 4.94083 14.9123 3.43364C14.7113 2.61013 14.2951 1.85534 13.7066 1.2471C14.339 1.2471 14.9714 1.21369 15.6039 1.20626C16.0588 2.08979 16.6283 4.16125 16.0736 4.72923H16.0773ZM6.28016 23.4838C6.8978 23.1125 7.51913 22.7599 7.38969 21.9654C7.31942 21.5459 6.98656 21.3232 6.70178 21.0559C6.62781 20.9891 5.59226 20.2429 5.53308 20.0759C5.37035 19.4299 6.08785 19.1478 6.44659 18.8434C7.29353 18.1009 7.41927 17.4661 6.75726 16.5381C6.25058 15.829 4.93394 15.3316 5.4924 14.3107C5.80307 13.739 6.55385 13.5682 6.77575 12.8555C7.24175 11.3928 4.81929 10.4684 5.84745 9.37703C6.6685 8.50835 7.43407 8.18909 6.73137 6.81926C6.57234 6.50742 5.9621 6.00998 5.91402 5.7464C5.81786 5.20812 6.4207 4.95568 6.70548 4.75151C7.1345 4.43596 7.73364 4.34315 7.97773 3.79373C8.31059 3.05128 7.88897 2.38306 7.34531 1.85963C7.88795 1.68638 8.44492 1.56214 9.00959 1.4884C9.36695 1.76521 9.68217 2.09287 9.94529 2.46102C10.2929 3.029 11.188 3.04014 9.98597 4.13155C9.79735 4.30232 9.29067 4.31717 9.05027 4.42111C8.18854 4.79234 7.72624 5.45684 8.07019 6.41833C8.37716 7.27216 9.61983 7.79559 8.77289 8.80905C8.46592 9.18028 7.87788 9.21369 7.61529 9.68515C6.79054 11.1701 9.05027 11.7343 8.81727 12.9557C8.61386 14.01 7.01985 14.3404 7.33791 15.636C7.49324 16.2633 8.12197 16.6012 8.5288 17.0392C8.93562 17.4773 9.36464 17.8485 9.10575 18.4239C8.9985 18.6541 8.39196 18.951 8.21073 19.1107C7.5968 19.6452 7.23805 20.191 7.68186 20.9668C7.98883 21.5051 8.79138 21.7093 9.07246 22.2364C9.50148 23.0049 8.97261 22.8898 8.41785 23.3947C8.33376 23.4669 8.27535 23.5646 8.25142 23.6731C7.59116 23.6494 6.93291 23.5862 6.28016 23.4838ZM9.96008 23.636C9.96788 23.631 9.97566 23.6261 9.9834 23.6211C10.5562 23.2547 10.985 22.8813 10.4742 21.9766C10.1746 21.4383 8.9948 21.1227 8.83946 20.5659C8.63975 19.7603 9.94899 19.352 10.2966 18.8026C11.0363 17.6035 9.76777 16.9464 9.15013 16.0926C8.70632 15.4912 8.46593 15.4578 8.97631 14.6411C9.17972 14.3181 9.61983 14.1399 9.83804 13.8021C9.98363 13.6122 10.0834 13.3911 10.1296 13.156C10.1758 12.9209 10.1672 12.6783 10.1043 12.4471C9.9231 11.7492 8.92083 11.2889 8.79508 10.7097C8.59907 9.80394 9.77886 9.7 10.1487 9.08747C10.2636 8.87997 10.3311 8.64946 10.3465 8.41257C10.3618 8.17568 10.3246 7.93832 10.2375 7.71763C9.9157 6.73387 8.63235 6.09165 9.90831 5.30835C10.9328 4.67726 11.9202 4.76264 11.654 3.18492C11.4697 2.46659 11.0662 1.82408 10.5001 1.34733C11.0548 1.31763 11.6096 1.30278 12.1643 1.28422H12.2198C12.2475 1.32411 12.2826 1.35817 12.3234 1.38445C12.6348 1.56033 12.8841 1.82881 13.0372 2.1529C13.407 2.96218 14.2946 3.39652 13.3108 4.24292C13.1111 4.41369 12.6229 4.42483 12.3751 4.53248C11.5134 4.90371 11.0511 5.56821 11.3951 6.5297C11.702 7.38353 12.9447 7.90696 12.0978 8.92042C11.7908 9.29165 11.2027 9.32506 10.9402 9.79652C10.1154 11.2814 12.3751 11.8457 12.1421 13.0671C11.9387 14.1213 10.3447 14.4517 10.6628 15.7473C10.8181 16.3747 11.4468 16.7125 11.8537 17.1506C12.2605 17.5886 12.6932 17.9673 12.4343 18.5353C12.3271 18.7654 11.7205 19.0624 11.5393 19.222C10.9254 19.7566 10.5666 20.3023 11.0104 21.0782C11.3174 21.6165 12.12 21.8207 12.401 22.3478C12.8301 23.1162 12.3012 23.0012 11.7464 23.506C11.7098 23.5389 11.6775 23.5763 11.6503 23.6174H11.4431C11.0203 23.5991 10.5183 23.6205 9.9834 23.6211C9.97564 23.6211 9.96786 23.6211 9.96008 23.6211V23.636ZM15.9626 23.6879C16.3324 22.9232 16.7023 22.0879 16.1512 21.364C15.7074 20.7775 14.8124 20.9928 15.2377 20.191C15.4966 19.7046 16.2437 19.493 16.5322 18.9696C16.6469 18.7495 16.7156 18.5082 16.734 18.2605C16.7524 18.0129 16.7203 17.764 16.6394 17.5292C16.4212 16.8239 15.5077 16.4675 15.3117 15.8847C14.9123 14.7116 17.1313 14.1028 16.7134 12.6179C16.5248 11.9682 15.5521 11.5042 15.4337 10.9473C15.234 10.0378 16.4138 9.9413 16.7874 9.32506C17.5936 7.98492 15.4633 6.85638 16.1919 5.88376C16.5211 5.442 17.2571 5.43828 17.5307 4.82204C17.6737 4.40855 17.6828 3.96027 17.5566 3.5413C17.3827 2.74063 17.1427 1.95587 16.8391 1.19513C17.3088 1.19513 17.7785 1.19513 18.2519 1.19513C18.1301 1.55313 18.0762 1.93087 18.0929 2.30882C18.0929 3.46705 19.3947 4.79977 18.9546 5.7464C18.5145 6.69304 17.4087 7.23132 18.178 8.41555C18.7401 9.2768 19.6943 9.20255 18.9176 10.3385C18.5478 10.8694 17.9856 11.1032 17.8377 11.8012C17.4864 13.4531 19.8644 13.739 18.5441 15.3501C17.8599 16.1891 16.5839 16.7051 17.2534 17.9747C17.479 18.4239 18.4627 18.7951 18.5663 19.2369C18.7327 19.9385 17.4124 20.5882 17.0869 21.0633C16.9467 21.2475 16.8485 21.4603 16.7993 21.6868C16.7501 21.9132 16.751 22.1478 16.8021 22.3738C16.976 22.9269 17.8044 23.1571 17.5122 23.6026C16.9975 23.6574 16.4803 23.6859 15.9626 23.6879ZM23.071 23.5543C22.5717 23.5766 22.0724 23.5877 21.5916 23.6026C21.5548 23.3208 21.4563 23.0508 21.3031 22.8118C21.0849 22.4406 20.7853 22.3738 20.9333 21.9691C21.0405 21.687 21.5731 21.5014 21.8246 21.3269C22.5643 20.8295 23.6072 20.191 23.1634 19.1589C22.9008 18.539 22.0058 18.3237 21.758 17.7631C21.3512 16.861 22.6789 16.3153 23.156 15.8253C24.1731 14.8044 23.6738 14.229 22.9637 13.2267C22.5939 12.7181 22.224 12.28 22.6308 11.5636C22.8675 11.1626 23.426 10.951 23.6886 10.5464C23.8103 10.3912 23.8961 10.2107 23.9396 10.0181C23.9831 9.8254 23.9833 9.62544 23.9401 9.43271C23.8143 8.87216 23.3853 8.78677 23.0784 8.38213C22.2425 7.28701 23.0488 6.91578 23.5444 5.99884C24.1213 4.91856 23.6146 4.1761 22.605 3.69721C21.7062 3.27401 21.4104 3.29629 22.0428 2.43132C22.3843 1.99923 22.7767 1.61031 23.2115 1.27308H23.7921C24.1361 1.27308 24.4764 1.3065 24.8203 1.32506C24.3321 1.93759 23.8957 2.66891 23.9549 3.3C24.1065 4.88886 26.5808 4.34687 25.6561 6.26984C25.1828 7.26102 24.5022 7.87726 25.4305 8.89443C25.6155 9.0949 26.0926 9.23596 26.2146 9.44756C26.6177 10.1455 25.9224 10.461 25.5452 10.8805C25.1305 11.2467 24.8667 11.755 24.8055 12.306C24.8159 12.8015 25.019 13.2731 25.3714 13.6202C25.8485 14.2216 26.4809 14.281 25.8189 15.3241C25.63 15.5237 25.4176 15.6994 25.1864 15.8476C24.3469 16.59 23.6294 17.3325 24.4098 18.4016C24.9461 19.1441 26.063 19.2072 25.2271 20.2578C24.8129 20.7701 24.0325 20.9483 23.6516 21.494C23.0894 22.3032 23.4186 22.9046 23.8661 23.5506C23.6012 23.5376 23.3358 23.5389 23.071 23.5543ZM27.8567 16.2596C27.0837 17.2323 27.4869 17.9376 28.3079 18.6949C29.9315 20.1798 27.0948 20.4063 26.7065 21.7056C26.4735 22.4889 27.2724 22.9121 27.816 23.2647C27.8701 23.2982 27.9125 23.3476 27.9374 23.4062C27.9623 23.4648 27.9685 23.5298 27.9551 23.592C27.9417 23.6543 27.9094 23.7109 27.8626 23.754C27.8159 23.7971 27.757 23.8246 27.694 23.8327C26.8935 23.8853 26.0896 23.8479 25.2974 23.7213C25.0459 23.3501 24.3913 22.6819 24.4209 22.3923C24.4653 21.9766 25.9705 21.1673 26.3071 20.8555C27.0246 20.1872 27.1244 19.5821 26.4809 18.8248C25.915 18.1529 25.0015 17.997 25.6118 16.9687C25.9483 16.3896 26.8064 16.1891 27.1762 15.6211C27.8974 14.5074 27.032 14.0657 26.4809 13.1933C25.3714 11.4114 27.7753 11.3371 27.6755 9.76682C27.6511 9.57009 27.5871 9.38041 27.4872 9.20935C27.3874 9.0383 27.2539 8.88946 27.0948 8.77193C26.5512 8.26334 26.4328 8.57146 26.4328 7.70278C26.4328 6.96032 26.6806 6.96032 27.0468 6.4406C27.5941 5.64246 27.7088 4.75151 26.8655 4.1167C26.2738 3.67123 25.3233 3.84571 25.3381 3.00301C25.3381 2.47958 25.8596 1.82993 26.2553 1.40673H26.4957C27.1448 1.36781 27.7956 1.36781 28.4447 1.40673C27.9159 1.87819 27.5091 2.46102 27.7051 3.21462C27.8328 3.61753 28.0938 3.96459 28.4447 4.19838C29.0143 4.629 29.7318 4.51763 29.3028 5.74269C29.214 5.99141 28.7702 6.27355 28.6186 6.52599C27.9048 7.72134 28.4669 8.15197 29.1992 9.01323C30.1053 10.0824 29.0365 10.2346 28.4595 11.1664C28.3192 11.3633 28.2226 11.5881 28.176 11.8256C28.1294 12.0632 28.1341 12.308 28.1896 12.5436C28.3597 13.2193 29.1955 13.5051 29.3805 14.0768C29.7244 15.1348 28.3486 15.636 27.8567 16.2596Z"
      fill="black"
    />
    <path
      d="M6.28016 23.4838C6.8978 23.1125 7.51913 22.7599 7.38969 21.9654C7.31942 21.5459 6.98656 21.3232 6.70178 21.0559C6.62781 20.9891 5.59226 20.2429 5.53308 20.0759C5.37035 19.4299 6.08785 19.1478 6.44659 18.8434C7.29353 18.1009 7.41927 17.4661 6.75726 16.5381C6.25058 15.829 4.93394 15.3316 5.4924 14.3107C5.80307 13.739 6.55385 13.5682 6.77575 12.8555C7.24175 11.3928 4.81929 10.4684 5.84745 9.37703C6.6685 8.50835 7.43407 8.18909 6.73137 6.81926C6.57234 6.50742 5.9621 6.00998 5.91402 5.7464C5.81786 5.20812 6.4207 4.95568 6.70548 4.75151C7.1345 4.43596 7.73364 4.34315 7.97773 3.79373C8.31059 3.05128 7.88897 2.38306 7.34531 1.85963C7.88795 1.68638 8.44492 1.56214 9.00959 1.4884C9.36695 1.76521 9.68217 2.09287 9.94529 2.46102C10.2929 3.029 11.188 3.04014 9.98597 4.13155C9.79735 4.30232 9.29067 4.31717 9.05027 4.42111C8.18854 4.79234 7.72624 5.45684 8.07019 6.41833C8.37716 7.27216 9.61983 7.79559 8.77289 8.80905C8.46592 9.18028 7.87788 9.21369 7.61529 9.68515C6.79054 11.1701 9.05027 11.7343 8.81727 12.9557C8.61386 14.01 7.01985 14.3404 7.33791 15.636C7.49324 16.2633 8.12197 16.6012 8.5288 17.0392C8.93562 17.4773 9.36464 17.8485 9.10575 18.4239C8.9985 18.6541 8.39196 18.951 8.21073 19.1107C7.5968 19.6452 7.23805 20.191 7.68186 20.9668C7.98883 21.5051 8.79138 21.7093 9.07246 22.2364C9.50148 23.0049 8.97261 22.8898 8.41785 23.3947C8.33376 23.4669 8.27535 23.5646 8.25142 23.6731C7.59116 23.6494 6.93291 23.5862 6.28016 23.4838Z"
      fill="#E7E9C4"
    />
    <path
      d="M8.83946 20.5659C8.9948 21.1227 10.1746 21.4383 10.4742 21.9766C10.985 22.8813 10.5562 23.2547 9.9834 23.6211C10.5183 23.6205 11.0203 23.5991 11.4431 23.6174H11.6503C11.6775 23.5763 11.7098 23.5389 11.7464 23.506C12.3012 23.0012 12.8301 23.1162 12.401 22.3478C12.12 21.8207 11.3174 21.6165 11.0104 21.0782C10.5666 20.3023 10.9254 19.7566 11.5393 19.222C11.7205 19.0624 12.3271 18.7654 12.4343 18.5353C12.6932 17.9673 12.2605 17.5886 11.8537 17.1506C11.4468 16.7125 10.8181 16.3747 10.6628 15.7473C10.3447 14.4517 11.9387 14.1213 12.1421 13.0671C12.3751 11.8457 10.1154 11.2814 10.9402 9.79652C11.2027 9.32506 11.7908 9.29165 12.0978 8.92042C12.9447 7.90696 11.702 7.38353 11.3951 6.5297C11.0511 5.56821 11.5134 4.90371 12.3751 4.53248C12.6229 4.42483 13.1111 4.41369 13.3108 4.24292C14.2946 3.39652 13.407 2.96218 13.0372 2.1529C12.8841 1.82881 12.6348 1.56033 12.3234 1.38445C12.2826 1.35817 12.2475 1.32411 12.2198 1.28422H12.1643C11.6096 1.30278 11.0548 1.31763 10.5001 1.34733C11.0662 1.82408 11.4697 2.46659 11.654 3.18492C11.9202 4.76264 10.9328 4.67726 9.90831 5.30835C8.63235 6.09165 9.9157 6.73387 10.2375 7.71763C10.3246 7.93832 10.3618 8.17568 10.3465 8.41257C10.3311 8.64946 10.2636 8.87997 10.1487 9.08747C9.77886 9.7 8.59907 9.80394 8.79508 10.7097C8.92083 11.2889 9.9231 11.7492 10.1043 12.4471C10.1672 12.6783 10.1758 12.9209 10.1296 13.156C10.0834 13.3911 9.98363 13.6122 9.83804 13.8021C9.61983 14.1399 9.17972 14.3181 8.97631 14.6411C8.46593 15.4578 8.70632 15.4912 9.15013 16.0926C9.76777 16.9464 11.0363 17.6035 10.2966 18.8026C9.94899 19.352 8.63975 19.7603 8.83946 20.5659Z"
      fill="currentColor"
    />
    <path
      d="M16.0773 4.72923C15.4005 5.41972 14.3612 5.31578 14.6977 6.65963C14.8494 7.26102 15.6076 7.56914 15.737 8.10371C15.9848 9.14316 14.7865 9.2174 14.3612 9.80023C13.714 10.7135 14.4056 11.4077 15.001 12.087C16.4471 13.7353 14.0579 13.9432 13.9692 15.4615C13.8878 16.9464 16.2215 17.3436 14.9344 19.0067C14.4758 19.6044 13.3737 19.9831 13.7731 20.9446C13.9396 21.3418 14.3612 21.4234 14.6349 21.687C15.4115 22.4295 15.0972 22.9492 14.7569 23.6731L13.4329 23.6582C13.9433 23.3093 14.2835 22.9455 13.8027 22.0916C13.5032 21.5534 12.3234 21.2378 12.168 20.681C11.9683 19.8754 13.2776 19.4671 13.6252 18.9176C14.3649 17.7186 13.0963 17.0615 12.4787 16.2077C12.0349 15.6063 11.7945 15.5729 12.3049 14.7561C12.5083 14.4332 12.9484 14.255 13.1666 13.9172C13.3116 13.7277 13.4111 13.5072 13.4573 13.2728C13.5035 13.0384 13.4951 12.7965 13.4329 12.5659C13.2517 11.868 12.2494 11.4077 12.1237 10.8285C11.9276 9.92274 13.1074 9.81879 13.4773 9.20626C13.5922 8.99876 13.6597 8.76825 13.6751 8.53136C13.6904 8.29447 13.6532 8.05712 13.566 7.83643C13.2258 6.85267 11.9535 6.21044 13.2147 5.43086C14.2096 4.81833 15.1601 4.94083 14.9123 3.43364C14.7113 2.61013 14.2951 1.85534 13.7066 1.2471C14.339 1.2471 14.9714 1.21369 15.6039 1.20626C16.0588 2.08979 16.6283 4.16125 16.0736 4.72923H16.0773Z"
      fill="currentColor"
    />
    <path
      d="M15.9626 23.6879C16.3324 22.9232 16.7023 22.0879 16.1512 21.364C15.7074 20.7775 14.8124 20.9928 15.2377 20.191C15.4966 19.7046 16.2437 19.493 16.5322 18.9696C16.6469 18.7495 16.7156 18.5082 16.734 18.2605C16.7524 18.0129 16.7203 17.764 16.6394 17.5292C16.4212 16.8239 15.5077 16.4675 15.3117 15.8847C14.9123 14.7116 17.1313 14.1028 16.7134 12.6179C16.5248 11.9682 15.5521 11.5042 15.4337 10.9473C15.234 10.0378 16.4138 9.9413 16.7874 9.32506C17.5936 7.98492 15.4633 6.85638 16.1919 5.88376C16.5211 5.442 17.2571 5.43828 17.5307 4.82204C17.6737 4.40855 17.6828 3.96027 17.5566 3.5413C17.3827 2.74063 17.1427 1.95587 16.8391 1.19513H18.2519C18.1301 1.55313 18.0762 1.93087 18.0929 2.30882C18.0929 3.46705 19.3947 4.79977 18.9546 5.7464C18.5145 6.69304 17.4087 7.23132 18.178 8.41555C18.7401 9.2768 19.6943 9.20255 18.9176 10.3385C18.5478 10.8694 17.9856 11.1032 17.8377 11.8012C17.4864 13.4531 19.8644 13.739 18.5441 15.3501C17.8599 16.1891 16.5839 16.7051 17.2534 17.9747C17.479 18.4239 18.4627 18.7951 18.5663 19.2369C18.7327 19.9385 17.4124 20.5882 17.0869 21.0633C16.9467 21.2475 16.8485 21.4603 16.7993 21.6868C16.7501 21.9132 16.751 22.1478 16.8021 22.3738C16.976 22.9269 17.8044 23.1571 17.5122 23.6026C16.9975 23.6574 16.4803 23.6859 15.9626 23.6879Z"
      fill="#E7E9C4"
    />
    <path
      d="M21.9392 4.63271C23.0858 5.8355 20.6263 6.96404 21.4141 8.40812C21.7654 9.05035 22.9193 9.18028 22.6013 10.1158C22.3941 10.7283 21.4141 11.029 21.1848 11.764C20.7077 13.3084 23.0118 13.8466 22.0798 15.2684C21.5065 16.1445 19.8607 16.6086 20.4858 17.9673C20.7336 18.5167 21.5176 18.7097 21.7469 19.2258C22.2018 20.2021 20.7299 20.5659 20.1603 21.0633C18.9065 22.1362 20.434 22.7042 20.4599 23.6211C19.9014 23.6211 19.3504 23.6434 18.7808 23.6508C18.84 23.3056 18.6181 23.0197 18.3666 22.474C17.5936 20.8072 20.2158 20.8889 19.9273 19.3037C19.6832 17.9005 17.564 17.9339 18.9768 16.4007C19.6462 15.6582 20.826 15.2647 20.3785 14.0508C20.1566 13.442 19.3688 13.1487 19.1617 12.5993C18.6957 11.3742 20.0272 11.0921 20.471 10.3088C21.1182 9.16172 20.1862 8.87587 19.5981 8.14083C18.5774 6.86752 20.974 5.89489 20.4488 4.39884C20.2639 3.86798 19.9347 3.92738 19.6425 3.571C19.1802 3.00302 18.9657 1.78909 19.5316 1.18028C20.2121 1.18028 20.8926 1.18028 21.5694 1.21369C21.0035 1.71856 20.4599 2.31995 20.3341 2.83225C19.968 4.18724 21.292 3.94594 21.9392 4.63271Z"
      fill="#E7E9C4"
    />
    <path
      d="M23.071 23.5543C22.5717 23.5766 22.0724 23.5877 21.5916 23.6026C21.5548 23.3208 21.4563 23.0508 21.3031 22.8118C21.0849 22.4406 20.7853 22.3738 20.9333 21.9691C21.0405 21.687 21.5731 21.5014 21.8246 21.3269C22.5643 20.8295 23.6072 20.191 23.1634 19.1589C22.9008 18.539 22.0058 18.3237 21.758 17.7631C21.3512 16.861 22.6789 16.3153 23.156 15.8253C24.1731 14.8044 23.6738 14.229 22.9637 13.2267C22.5939 12.7181 22.224 12.28 22.6308 11.5636C22.8675 11.1626 23.426 10.951 23.6886 10.5464C23.8103 10.3912 23.8961 10.2107 23.9396 10.0181C23.9831 9.8254 23.9833 9.62544 23.9401 9.43271C23.8143 8.87216 23.3853 8.78677 23.0784 8.38213C22.2425 7.28701 23.0488 6.91578 23.5444 5.99884C24.1213 4.91856 23.6146 4.1761 22.605 3.69721C21.7062 3.27401 21.4104 3.29629 22.0428 2.43132C22.3843 1.99923 22.7767 1.61031 23.2115 1.27308H23.7921C24.1361 1.27308 24.4764 1.3065 24.8203 1.32506C24.3321 1.93759 23.8957 2.66891 23.9549 3.3C24.1065 4.88886 26.5808 4.34687 25.6561 6.26984C25.1828 7.26102 24.5022 7.87726 25.4305 8.89443C25.6155 9.0949 26.0926 9.23596 26.2146 9.44756C26.6177 10.1455 25.9224 10.461 25.5452 10.8805C25.1305 11.2467 24.8667 11.755 24.8055 12.306C24.8159 12.8015 25.019 13.2731 25.3714 13.6202C25.8485 14.2216 26.4809 14.281 25.8189 15.3241C25.63 15.5237 25.4176 15.6994 25.1864 15.8476C24.3469 16.59 23.6294 17.3325 24.4098 18.4016C24.9461 19.1441 26.063 19.2072 25.2271 20.2578C24.8129 20.7701 24.0325 20.9483 23.6516 21.494C23.0894 22.3032 23.4186 22.9046 23.8661 23.5506C23.6012 23.5376 23.3358 23.5389 23.071 23.5543Z"
      fill="currentColor"
    />
    <path
      d="M27.8567 16.2596C27.0837 17.2323 27.4869 17.9376 28.3079 18.6949C29.9315 20.1798 27.0948 20.4063 26.7065 21.7056C26.4735 22.4889 27.2724 22.9121 27.816 23.2647C27.8701 23.2982 27.9125 23.3476 27.9374 23.4062C27.9623 23.4648 27.9685 23.5298 27.9551 23.592C27.9417 23.6543 27.9094 23.7109 27.8626 23.754C27.8159 23.7971 27.757 23.8246 27.694 23.8327C26.8935 23.8853 26.0896 23.8479 25.2974 23.7213C25.0459 23.3501 24.3913 22.6819 24.4209 22.3923C24.4653 21.9766 25.9705 21.1673 26.3071 20.8555C27.0246 20.1872 27.1244 19.5821 26.4809 18.8248C25.915 18.1529 25.0015 17.997 25.6118 16.9687C25.9483 16.3896 26.8064 16.1891 27.1762 15.6211C27.8974 14.5074 27.032 14.0657 26.4809 13.1933C25.3714 11.4114 27.7753 11.3371 27.6755 9.76682C27.6511 9.57009 27.5871 9.38041 27.4872 9.20935C27.3874 9.0383 27.2539 8.88946 27.0948 8.77193C26.5512 8.26334 26.4328 8.57146 26.4328 7.70278C26.4328 6.96032 26.6806 6.96032 27.0468 6.4406C27.5941 5.64246 27.7088 4.75151 26.8655 4.1167C26.2738 3.67123 25.3233 3.84571 25.3381 3.00301C25.3381 2.47958 25.8596 1.82993 26.2553 1.40673H26.4957C27.1448 1.36781 27.7956 1.36781 28.4447 1.40673C27.9159 1.87819 27.5091 2.46102 27.7051 3.21462C27.8328 3.61753 28.0938 3.96459 28.4447 4.19838C29.0143 4.629 29.7318 4.51763 29.3028 5.74269C29.214 5.99141 28.7702 6.27355 28.6186 6.52599C27.9048 7.72134 28.4669 8.15197 29.1992 9.01323C30.1053 10.0824 29.0365 10.2346 28.4595 11.1664C28.3192 11.3633 28.2226 11.5881 28.176 11.8256C28.1294 12.0632 28.1341 12.308 28.1896 12.5436C28.3597 13.2193 29.1955 13.5051 29.3805 14.0768C29.7244 15.1348 28.3486 15.636 27.8567 16.2596Z"
      fill="#E7E9C4"
    />
  </g>
  <defs>
    <filter
      id="filter0_d_342_68"
      x="0"
      y="0"
      width="35"
      height="33"
      filterUnits="userSpaceOnUse"
      color-interpolation-filters="sRGB"
    >
      <feFlood flood-opacity="0" result="BackgroundImageFix" />
      <feColorMatrix
        in="SourceAlpha"
        type="matrix"
        values="0 0 0 0 0 0 0 0 0 0 0 0 0 0 0 0 0 0 127 0"
        result="hardAlpha"
      />
      <feOffset dy="4" />
      <feGaussianBlur stdDeviation="2" />
      <feComposite in2="hardAlpha" operator="out" />
      <feColorMatrix type="matrix" values="0 0 0 0 0 0 0 0 0 0 0 0 0 0 0 0 0 0 0.25 0" />
      <feBlend mode="normal" in2="BackgroundImageFix" result="effect1_dropShadow_342_68" />
      <feBlend mode="normal" in="SourceGraphic" in2="effect1_dropShadow_342_68" result="shape" />
    </filter>
  </defs>
</svg>
