<svg  viewBox="0 0 20 21" fill="none" xmlns="http://www.w3.org/2000/svg">
<path d="M6.10352e-05 10.0144C6.1518e-05 4.49159 4.47721 0.0144343 10.0001 0.0144348C15.5229 0.0144353 20.0001 4.49159 20.0001 10.0144C20.0001 15.5373 15.5229 20.0144 10.0001 20.0144C4.47721 20.0144 6.05523e-05 15.5373 6.10352e-05 10.0144Z" fill="black"/>
<path d="M10.7001 5H9.30006C9.13437 5 9.00006 5.13432 9.00006 5.3V11.5L9.55352 12L12.6286 14.526C12.7567 14.6312 12.9457 14.6126 13.0509 14.4846L13.9395 13.4028C14.0447 13.2747 14.0262 13.0857 13.8981 12.9805L11.0001 10.6V5.3C11.0001 5.13432 10.8657 5 10.7001 5Z" fill="white"/>
</svg>
