<svg viewBox="0 0 43 33" fill="none" xmlns="http://www.w3.org/2000/svg">
  <g filter="url(#filter0_d_309_1314)">
    <path
      d="M30.1771 14.1957C30.6267 14.4654 31.9755 15.6044 32.6049 16.3537C33.2542 17.2392 34.6342 17.9026 35.5722 18.2447C35.7695 18.286 36.1974 18.3066 36.331 18.013C37.2162 16.1649 37.8058 12.4987 38 10.7788V10.4191C37.8561 10.8507 35.3624 12.0376 34.1335 12.5772C33.7738 12.757 29.8174 13.7461 29.6822 13.836C29.8736 13.9649 30.0409 14.0876 30.1771 14.1957Z"
      fill="black"
    />
    <path
      d="M14.4414 5.83329L16.0599 6.3728L18.218 5.83329C18.4578 5.92321 18.8474 6.22893 18.4877 6.73247L16.1499 7.45182L15.4305 9.25018C16.0899 9.04037 17.4627 8.85454 17.6785 9.78969L19.9264 9.07035C20.3161 9.04037 20.9515 9.14228 20.376 9.78969L18.3978 10.5668C18.563 10.7937 18.6878 11.3348 18.4126 12.1499C20.376 11.3406 24.3324 9.87961 27.7493 9.63215C31.2561 9.72207 32.6648 11.4756 34.1335 12.5772C35.3624 12.0376 37.8561 10.8507 38 10.4191V6.73247C37.9101 5.65345 36.1117 3.76517 34.1335 1.9668C32.551 0.528111 29.4578 1.00768 28.109 1.42729L15.0259 5.1589L14.4414 5.83329Z"
      fill="url(#paint0_linear_309_1314)"
    />
    <path
      d="M17.3188 14.0159C17.0745 14.4312 16.9298 15.1252 17.8583 15.173C21.545 13.2729 25.3215 12.5772 25.5913 12.5772C26.9258 12.2739 28.6525 13.1428 29.6822 13.836C29.8174 13.7461 33.7738 12.757 34.1335 12.5772C32.6648 11.4756 31.2561 9.72207 27.7493 9.63215C24.3324 9.87961 20.376 11.3406 18.4126 12.1499C18.2385 12.6656 17.9042 13.291 17.3188 14.0159Z"
      fill="url(#paint1_linear_309_1314)"
    />
    <path
      d="M15.5204 3.85509C14.3695 3.20767 8.02725 4.48451 5 5.20386L5.26975 23.5472C7.60763 22.5281 12.3373 20.436 12.5531 20.2202C14.9989 19.0693 15.97 19.1412 16.1499 19.321C16.4376 18.3139 17.7684 18.242 18.3978 18.3319C18.8294 18.1161 18.7575 17.7624 18.6676 17.6126C19.2371 17.3728 20.394 16.8932 20.4659 16.8932C20.9695 16.3178 20.4959 16.1739 20.1962 16.1739L18.9373 16.7134C18.7215 16.7134 18.9074 16.4736 19.0272 16.3537L20.9155 15.3646C21.2033 14.7172 20.7357 14.6153 20.4659 14.6453L19.0272 15.2747C19.0992 15.0589 18.8174 15.0649 18.6676 15.0949C18.335 15.1614 18.069 15.1838 17.8583 15.173C16.9298 15.1252 17.0745 14.4312 17.3188 14.0159C17.9042 13.291 18.2385 12.6656 18.4126 12.1499C18.6878 11.3348 18.563 10.7937 18.3978 10.5668L20.376 9.78969C20.9515 9.14228 20.3161 9.04037 19.9264 9.07035L17.6785 9.78969C17.4627 8.85454 16.0899 9.04037 15.4305 9.25018L16.1499 7.45182L18.4877 6.73247C18.8474 6.22893 18.4578 5.92321 18.218 5.83329L16.0599 6.3728L14.4414 5.83329L15.0259 5.1589L15.6104 4.48452L17.8583 3.58533C18.146 3.22566 17.7984 3.0758 17.5886 3.04582L15.5204 3.85509Z"
      fill="url(#paint2_linear_309_1314)"
    />
    <path
      d="M17.8583 10.7788L18.3978 10.5668M18.3978 10.5668L20.376 9.78969C20.9515 9.14228 20.3161 9.04037 19.9264 9.07035L17.6785 9.78969C17.4627 8.85454 16.0899 9.04037 15.4305 9.25018L16.1499 7.45182L18.4877 6.73247C18.8474 6.22893 18.4578 5.92321 18.218 5.83329L16.0599 6.3728L14.4414 5.83329L15.0259 5.1589M18.3978 10.5668C18.563 10.7937 18.6878 11.3348 18.4126 12.1499M15.0259 5.1589L15.6104 4.48452L17.8583 3.58533C18.146 3.22566 17.7984 3.0758 17.5886 3.04582L15.5204 3.85509C14.3695 3.20767 8.02725 4.48451 5 5.20386L5.26975 23.5472C7.60763 22.5281 12.3373 20.436 12.5531 20.2202C14.9989 19.0693 15.97 19.1412 16.1499 19.321C16.4376 18.3139 17.7684 18.242 18.3978 18.3319C18.8294 18.1161 18.7575 17.7624 18.6676 17.6126C19.2371 17.3728 20.394 16.8932 20.4659 16.8932C20.9695 16.3178 20.4959 16.1739 20.1962 16.1739L18.9373 16.7134C18.7215 16.7134 18.9074 16.4736 19.0272 16.3537L20.9155 15.3646C21.2033 14.7172 20.7357 14.6153 20.4659 14.6453L19.0272 15.2747C19.0992 15.0589 18.8174 15.0649 18.6676 15.0949C18.335 15.1614 18.069 15.1838 17.8583 15.173M15.0259 5.1589L28.109 1.42729C29.4578 1.00768 32.551 0.528111 34.1335 1.9668C36.1117 3.76517 37.9101 5.65345 38 6.73247V10.4191M17.8583 15.173C16.9298 15.1252 17.0745 14.4312 17.3188 14.0159C17.9042 13.291 18.2385 12.6656 18.4126 12.1499M17.8583 15.173C21.545 13.2729 25.3215 12.5772 25.5913 12.5772C26.9258 12.2739 28.6525 13.1428 29.6822 13.836M29.6822 13.836C29.8736 13.9649 30.0409 14.0876 30.1771 14.1957C30.6267 14.4654 31.9755 15.6044 32.6049 16.3537C33.2542 17.2392 34.6342 17.9026 35.5722 18.2447C35.7695 18.286 36.1974 18.3066 36.331 18.013C37.2162 16.1649 37.8058 12.4987 38 10.7788V10.4191M29.6822 13.836C29.8174 13.7461 33.7738 12.757 34.1335 12.5772M34.1335 12.5772C35.3624 12.0376 37.8561 10.8507 38 10.4191M34.1335 12.5772C32.6648 11.4756 31.2561 9.72207 27.7493 9.63215C24.3324 9.87961 20.376 11.3406 18.4126 12.1499"
      stroke="black"
      stroke-linejoin="round"
    />
    <path
      d="M33.7738 7.93461C33.7738 8.53054 33.2907 9.01363 32.6948 9.01363C32.0989 9.01363 31.6158 8.53054 31.6158 7.93461C31.6158 7.33868 32.0989 6.85559 32.6948 6.85559C33.2907 6.85559 33.7738 7.33868 33.7738 7.93461Z"
      fill="black"
    />
  </g>
  <defs>
    <filter
      id="filter0_d_309_1314"
      x="0.5"
      y="0.5"
      width="42"
      height="31.5472"
      filterUnits="userSpaceOnUse"
      color-interpolation-filters="sRGB"
    >
      <feFlood flood-opacity="0" result="BackgroundImageFix" />
      <feColorMatrix
        in="SourceAlpha"
        type="matrix"
        values="0 0 0 0 0 0 0 0 0 0 0 0 0 0 0 0 0 0 127 0"
        result="hardAlpha"
      />
      <feOffset dy="4" />
      <feGaussianBlur stdDeviation="2" />
      <feComposite in2="hardAlpha" operator="out" />
      <feColorMatrix
        type="matrix"
        values="0 0 0 0 0 0 0 0 0 0 0 0 0 0 0 0 0 0 0.25 0"
      />
      <feBlend
        mode="normal"
        in2="BackgroundImageFix"
        result="effect1_dropShadow_309_1314"
      />
      <feBlend
        mode="normal"
        in="SourceGraphic"
        in2="effect1_dropShadow_309_1314"
        result="shape"
      />
    </filter>
    <linearGradient
      id="paint0_linear_309_1314"
      x1="26"
      y1="9"
      x2="24"
      y2="2.5"
      gradientUnits="userSpaceOnUse"
    >
      <stop stop-color="#8B7A72" />
      <stop offset="0.44" stop-color="#BBB5B2" />
      <stop offset="0.595" stop-color="white" />
      <stop offset="0.76" stop-color="#E1DEDF" />
      <stop offset="1" stop-color="#E8E0D7" />
    </linearGradient>
    <linearGradient
      id="paint1_linear_309_1314"
      x1="17.5"
      y1="13"
      x2="32.5"
      y2="12"
      gradientUnits="userSpaceOnUse"
    >
      <stop stop-color="#614641" />
      <stop offset="1" stop-color="#391302" />
    </linearGradient>
    <linearGradient
      id="paint2_linear_309_1314"
      x1="11.5"
      y1="2.5"
      x2="15"
      y2="17.5"
      gradientUnits="userSpaceOnUse"
    >
      <stop stop-color="white" />
      <stop offset="0.445" stop-color="white" />
      <stop offset="0.6" stop-color="#D5E5FF" />
      <stop offset="1" stop-color="#C7DCFF" />
    </linearGradient>
  </defs>
</svg>
