<svg viewBox="0 0 27 26" fill="none" xmlns="http://www.w3.org/2000/svg">
  <path
    d="M26.8154 15.0334C26.7818 14.6232 26.6049 14.238 26.3161 13.9457C26.1164 13.6896 25.6282 13.4186 25.5136 13.1142C25.1142 12.0673 25.9241 11.8186 26.4234 11.284C27.1187 10.5415 27.2334 9.79907 26.5011 9.05661C26.342 8.89327 25.8945 8.74478 25.7614 8.54432C25.1548 7.55684 25.987 7.25615 26.3827 6.68817C26.6573 6.35473 26.8203 5.94301 26.8487 5.51137C26.846 5.29177 26.7908 5.07604 26.6878 4.88226C26.5849 4.68848 26.4371 4.52231 26.257 4.39768C26.024 4.1935 25.5506 4.17123 25.362 3.94478C24.7443 3.20232 25.325 2.49327 25.913 2.16288C26.7193 1.70626 25.8058 1.12714 25.717 1.10858C24.4115 0.529465 17.5805 0.60371 15.5908 0.577724H14.1521C10.3945 0.577724 5.78996 0.0802771 2.23578 1.60232C2.12483 1.60232 1.34816 2.09234 1.97689 2.67146C2.54645 3.19489 2.81643 3.73689 2.28756 4.21206C2.05456 4.41995 1.63664 4.4051 1.37405 4.58329C1.18114 4.68148 1.01379 4.82358 0.885356 4.99827C0.756922 5.17295 0.670971 5.37536 0.634369 5.58933C0.393972 6.98886 2.52056 7.68306 1.2705 8.9304C0.623274 9.57262 -0.208869 9.79907 0.242337 10.9128C0.490131 11.5476 1.42953 11.9188 1.59226 12.5387C1.82526 13.4408 0.693544 13.8566 0.294115 14.4617C-0.27544 15.3267 0.0463217 15.9466 0.712036 16.6074C0.99978 16.852 1.27272 17.1135 1.52938 17.3907C2.08785 18.1109 2.05826 18.2371 1.37405 18.768C1.01921 18.9863 0.698847 19.2565 0.42356 19.5698C-0.197773 20.4719 0.368083 21.0325 1.06708 21.6562C1.43692 21.9903 2.17661 22.4729 2.00648 22.8515C1.86594 23.1596 0.948734 23.4826 0.660258 23.7759C0.61023 23.8238 0.57036 23.8814 0.543033 23.9452C0.515707 24.009 0.501488 24.0777 0.501227 24.1471C0.485015 24.2498 0.50306 24.3549 0.552556 24.4462C0.602052 24.5376 0.680223 24.6099 0.774909 24.652C2.17661 25.3684 3.78911 25.1123 5.32026 25.168C7.66875 25.2534 10.0135 25.3276 12.3472 25.3276C14.5786 25.3276 16.81 25.2806 19.0414 25.1865C20.935 25.1049 22.9987 25.8919 24.8257 25.2385C25.6504 24.9193 25.4766 23.3824 24.4965 22.8701C23.9529 22.5879 23.8012 22.8107 24.1267 22.2724C24.374 22.0154 24.6567 21.7954 24.9662 21.619C25.3841 21.2998 26.0314 20.9768 26.2274 20.4422C26.6897 19.1838 25.177 19.0093 24.7887 18.1406C24.2265 16.9081 26.8154 16.3587 26.8154 15.0334ZM17.9392 5.13271C19.0858 6.3355 16.6263 7.46404 17.4141 8.90812C17.7654 9.55035 18.9193 9.68028 18.6013 10.6158C18.3941 11.2283 17.4141 11.529 17.1848 12.264C16.7077 13.8084 19.0118 14.3466 18.0798 15.7684C17.5065 16.6445 15.8607 17.1086 16.4858 18.4673C16.7336 19.0167 17.5176 19.2097 17.7469 19.7258C18.2018 20.7021 16.7299 21.0659 16.1603 21.5633C14.9065 22.6362 16.434 23.2042 16.4599 24.1211C15.9014 24.1211 15.3504 24.1434 14.7808 24.1508C14.84 23.8056 14.6181 23.5197 14.3666 22.974C13.5936 21.3072 16.2158 21.3889 15.9273 19.8037C15.6832 18.4005 13.564 18.4339 14.9768 16.9007C15.6462 16.1582 16.826 15.7647 16.3785 14.5508C16.1566 13.942 15.3688 13.6487 15.1617 13.0993C14.6957 11.8742 16.0272 11.5921 16.471 10.8088C17.1182 9.66172 16.1862 9.37587 15.5981 8.64083C14.5774 7.36752 16.974 6.39489 16.4488 4.89884C16.2639 4.36798 15.9347 4.42738 15.6425 4.071C15.1802 3.50302 14.9657 2.28909 15.5316 1.68028C16.2121 1.68028 16.8926 1.68028 17.5694 1.71369C17.0035 2.21856 16.4599 2.81995 16.3341 3.33225C15.968 4.68724 17.292 4.44594 17.9392 5.13271ZM12.0773 5.22923C11.4005 5.91972 10.3612 5.81578 10.6978 7.15963C10.8494 7.76102 11.6076 8.06914 11.737 8.60371C11.9848 9.64316 10.7865 9.7174 10.3612 10.3002C9.71397 11.2135 10.4056 11.9077 11.001 12.587C12.4471 14.2353 10.0579 14.4432 9.96916 15.9615C9.8878 17.4464 12.2215 17.8436 10.9344 19.5067C10.4758 20.1044 9.37372 20.4831 9.77315 21.4446C9.93958 21.8418 10.3612 21.9234 10.6349 22.187C11.4115 22.9295 11.0972 23.4492 10.7569 24.1731L9.43289 24.1582C9.94327 23.8093 10.2835 23.4455 9.80273 22.5917C9.50316 22.0534 8.32337 21.7378 8.16804 21.181C7.96832 20.3754 9.27756 19.9671 9.62521 19.4176C10.3649 18.2186 9.09634 17.5615 8.4787 16.7077C8.03489 16.1063 7.7945 16.0729 8.30488 15.2561C8.50829 14.9332 8.9484 14.755 9.16661 14.4172C9.31164 14.2277 9.41113 14.0072 9.45731 13.7728C9.5035 13.5384 9.49514 13.2965 9.43289 13.0659C9.25167 12.368 8.2494 11.9077 8.12365 11.3285C7.92764 10.4227 9.10743 10.3188 9.47727 9.70626C9.59215 9.49876 9.6597 9.26825 9.67505 9.03136C9.6904 8.79447 9.65317 8.55712 9.56604 8.33643C9.22578 7.35267 7.95353 6.71044 9.21469 5.93086C10.2096 5.31833 11.1601 5.44083 10.9123 3.93364C10.7113 3.11013 10.2951 2.35534 9.70658 1.7471C10.339 1.7471 10.9714 1.71369 11.6039 1.70626C12.0588 2.58979 12.6283 4.66125 12.0736 5.22923H12.0773ZM2.28016 23.9838C2.8978 23.6125 3.51913 23.2599 3.38969 22.4654C3.31942 22.0459 2.98656 21.8232 2.70178 21.5559C2.62781 21.4891 1.59226 20.7429 1.53308 20.5759C1.37035 19.9299 2.08785 19.6478 2.44659 19.3434C3.29353 18.6009 3.41927 17.9661 2.75726 17.0381C2.25058 16.329 0.933941 15.8316 1.4924 14.8107C1.80307 14.239 2.55385 14.0682 2.77575 13.3555C3.24175 11.8928 0.81929 10.9684 1.84745 9.87703C2.6685 9.00835 3.43407 8.68909 2.73137 7.31926C2.57234 7.00742 1.9621 6.50998 1.91402 6.2464C1.81786 5.70812 2.4207 5.45568 2.70548 5.25151C3.1345 4.93596 3.73364 4.84315 3.97773 4.29373C4.31059 3.55128 3.88897 2.88306 3.34531 2.35963C3.88795 2.18638 4.44492 2.06214 5.00959 1.9884C5.36695 2.26521 5.68217 2.59287 5.94529 2.96102C6.29294 3.529 7.18796 3.54014 5.98597 4.63155C5.79735 4.80232 5.29067 4.81717 5.05027 4.92111C4.18854 5.29234 3.72624 5.95684 4.07019 6.91833C4.37716 7.77216 5.61983 8.29559 4.77289 9.30905C4.46592 9.68028 3.87788 9.71369 3.61529 10.1852C2.79054 11.6701 5.05027 12.2343 4.81727 13.4557C4.61386 14.51 3.01985 14.8404 3.33791 16.136C3.49324 16.7633 4.12197 17.1012 4.5288 17.5392C4.93562 17.9773 5.36464 18.3485 5.10575 18.9239C4.9985 19.1541 4.39196 19.451 4.21073 19.6107C3.5968 20.1452 3.23805 20.691 3.68186 21.4668C3.98883 22.0051 4.79138 22.2093 5.07246 22.7364C5.50148 23.5049 4.97261 23.3898 4.41785 23.8947C4.33376 23.9669 4.27535 24.0646 4.25142 24.1731C3.59116 24.1494 2.93291 24.0862 2.28016 23.9838ZM5.96008 24.136C5.96788 24.131 5.97566 24.1261 5.9834 24.1211C6.55621 23.7547 6.98503 23.3813 6.47416 22.4766C6.17459 21.9383 4.9948 21.6227 4.83946 21.0659C4.63975 20.2603 5.94899 19.852 6.29664 19.3026C7.03632 18.1035 5.76777 17.4464 5.15013 16.5926C4.70632 15.9912 4.46592 15.9578 4.97631 15.1411C5.17972 14.8181 5.61983 14.6399 5.83804 14.3021C5.98363 14.1122 6.08344 13.8911 6.12964 13.656C6.17584 13.4209 6.16717 13.1783 6.10432 12.9471C5.9231 12.2492 4.92083 11.7889 4.79508 11.2097C4.59907 10.3039 5.77886 10.2 6.1487 9.58747C6.26358 9.37997 6.33113 9.14946 6.34648 8.91257C6.36183 8.67568 6.3246 8.43832 6.23746 8.21763C5.9157 7.23387 4.63235 6.59165 5.90831 5.80835C6.93277 5.17726 7.92024 5.26264 7.65396 3.68492C7.46965 2.96659 7.06619 2.32408 6.50005 1.84733C7.05481 1.81763 7.60958 1.80278 8.16434 1.78422H8.21981C8.24746 1.82411 8.28265 1.85817 8.32337 1.88445C8.63476 2.06033 8.88415 2.32881 9.03716 2.6529C9.407 3.46218 10.2946 3.89652 9.31084 4.74292C9.11113 4.91369 8.62294 4.92483 8.37515 5.03248C7.51342 5.40371 7.05112 6.06821 7.39507 7.0297C7.70204 7.88353 8.9447 8.40696 8.09777 9.42042C7.7908 9.79165 7.20275 9.82506 6.94016 10.2965C6.11542 11.7814 8.37515 12.3457 8.14215 13.5671C7.93873 14.6213 6.34472 14.9517 6.66278 16.2473C6.81812 16.8747 7.44685 17.2125 7.85367 17.6506C8.2605 18.0886 8.69321 18.4673 8.43432 19.0353C8.32707 19.2654 7.72053 19.5624 7.53931 19.722C6.92537 20.2566 6.56662 20.8023 7.01043 21.5782C7.3174 22.1165 8.11996 22.3207 8.40104 22.8478C8.83005 23.6162 8.30118 23.5012 7.74642 24.006C7.7098 24.0389 7.67749 24.0763 7.65026 24.1174H7.44315C7.02027 24.0991 6.51834 24.1205 5.9834 24.1211C5.97564 24.1211 5.96786 24.1211 5.96008 24.1211V24.136ZM11.9626 24.1879C12.3324 23.4232 12.7023 22.5879 12.1512 21.864C11.7074 21.2775 10.8124 21.4928 11.2377 20.691C11.4966 20.2046 12.2437 19.993 12.5322 19.4696C12.6469 19.2495 12.7156 19.0082 12.734 18.7605C12.7524 18.5129 12.7203 18.264 12.6394 18.0292C12.4212 17.3239 11.5077 16.9675 11.3117 16.3847C10.9123 15.2116 13.1313 14.6028 12.7134 13.1179C12.5248 12.4682 11.5521 12.0042 11.4337 11.4473C11.234 10.5378 12.4138 10.4413 12.7874 9.82506C13.5936 8.48492 11.4633 7.35638 12.1919 6.38376C12.5211 5.942 13.2571 5.93828 13.5307 5.32204C13.6737 4.90855 13.6828 4.46027 13.5566 4.0413C13.3827 3.24063 13.1427 2.45587 12.8391 1.69513C13.3088 1.69513 13.7785 1.69513 14.2519 1.69513C14.1301 2.05313 14.0762 2.43087 14.0929 2.80882C14.0929 3.96705 15.3947 5.29977 14.9546 6.2464C14.5145 7.19304 13.4087 7.73132 14.178 8.91555C14.7401 9.7768 15.6943 9.70255 14.9176 10.8385C14.5478 11.3694 13.9856 11.6032 13.8377 12.3012C13.4864 13.9531 15.8644 14.239 14.5441 15.8501C13.8599 16.6891 12.5839 17.2051 13.2534 18.4747C13.479 18.9239 14.4627 19.2951 14.5663 19.7369C14.7327 20.4385 13.4124 21.0882 13.0869 21.5633C12.9467 21.7475 12.8485 21.9603 12.7993 22.1868C12.7501 22.4132 12.751 22.6478 12.8021 22.8738C12.976 23.4269 13.8044 23.6571 13.5122 24.1026C12.9975 24.1574 12.4803 24.1859 11.9626 24.1879ZM19.071 24.0543C18.5717 24.0766 18.0724 24.0877 17.5916 24.1026C17.5548 23.8208 17.4563 23.5508 17.3031 23.3118C17.0849 22.9406 16.7853 22.8738 16.9333 22.4691C17.0405 22.187 17.5731 22.0014 17.8246 21.8269C18.5643 21.3295 19.6072 20.691 19.1634 19.6589C18.9008 19.039 18.0058 18.8237 17.758 18.2631C17.3512 17.361 18.6789 16.8153 19.156 16.3253C20.1731 15.3044 19.6738 14.729 18.9637 13.7267C18.5939 13.2181 18.224 12.78 18.6308 12.0636C18.8675 11.6626 19.426 11.451 19.6886 11.0464C19.8103 10.8912 19.8961 10.7107 19.9396 10.5181C19.9831 10.3254 19.9833 10.1254 19.9401 9.93271C19.8143 9.37216 19.3853 9.28677 19.0784 8.88213C18.2425 7.78701 19.0488 7.41578 19.5444 6.49884C20.1213 5.41856 19.6146 4.6761 18.605 4.19721C17.7062 3.77401 17.4104 3.79629 18.0428 2.93132C18.3843 2.49923 18.7767 2.11031 19.2115 1.77308H19.7921C20.1361 1.77308 20.4764 1.8065 20.8203 1.82506C20.3321 2.43759 19.8957 3.16891 19.9549 3.8C20.1065 5.38886 22.5808 4.84687 21.6561 6.76984C21.1828 7.76102 20.5022 8.37726 21.4305 9.39443C21.6155 9.5949 22.0926 9.73596 22.2146 9.94756C22.6177 10.6455 21.9224 10.961 21.5452 11.3805C21.1305 11.7467 20.8667 12.255 20.8055 12.806C20.8159 13.3015 21.019 13.7731 21.3714 14.1202C21.8485 14.7216 22.4809 14.781 21.8189 15.8241C21.63 16.0237 21.4176 16.1994 21.1864 16.3476C20.3469 17.09 19.6294 17.8325 20.4098 18.9016C20.9461 19.6441 22.063 19.7072 21.2271 20.7578C20.8129 21.2701 20.0325 21.4483 19.6516 21.994C19.0894 22.8032 19.4186 23.4046 19.8661 24.0506C19.6012 24.0376 19.3358 24.0389 19.071 24.0543ZM23.8567 16.7596C23.0837 17.7323 23.4869 18.4376 24.3079 19.1949C25.9315 20.6798 23.0948 20.9063 22.7065 22.2056C22.4735 22.9889 23.2724 23.4121 23.816 23.7647C23.8701 23.7982 23.9125 23.8476 23.9374 23.9062C23.9623 23.9648 23.9685 24.0298 23.9551 24.092C23.9417 24.1543 23.9094 24.2109 23.8626 24.254C23.8159 24.2971 23.757 24.3246 23.694 24.3327C22.8935 24.3853 22.0896 24.3479 21.2974 24.2213C21.0459 23.8501 20.3913 23.1819 20.4209 22.8923C20.4653 22.4766 21.9705 21.6673 22.3071 21.3555C23.0246 20.6872 23.1244 20.0821 22.4809 19.3248C21.915 18.6529 21.0015 18.497 21.6118 17.4687C21.9483 16.8896 22.8064 16.6891 23.1762 16.1211C23.8974 15.0074 23.032 14.5657 22.4809 13.6933C21.3714 11.9114 23.7753 11.8371 23.6755 10.2668C23.6511 10.0701 23.5871 9.88041 23.4872 9.70935C23.3874 9.5383 23.2539 9.38946 23.0948 9.27193C22.5512 8.76334 22.4328 9.07146 22.4328 8.20278C22.4328 7.46032 22.6806 7.46032 23.0468 6.9406C23.5941 6.14246 23.7088 5.25151 22.8655 4.6167C22.2738 4.17123 21.3233 4.34571 21.3381 3.50301C21.3381 2.97958 21.8596 2.32993 22.2553 1.90673H22.4957C23.1448 1.86781 23.7956 1.86781 24.4447 1.90673C23.9159 2.37819 23.5091 2.96102 23.7051 3.71462C23.8328 4.11753 24.0938 4.46459 24.4447 4.69838C25.0143 5.129 25.7318 5.01763 25.3028 6.24269C25.214 6.49141 24.7702 6.77355 24.6186 7.02599C23.9048 8.22135 24.4669 8.65197 25.1992 9.51323C26.1053 10.5824 25.0365 10.7346 24.4595 11.6664C24.3192 11.8633 24.2226 12.0881 24.176 12.3256C24.1294 12.5632 24.1341 12.808 24.1896 13.0436C24.3597 13.7193 25.1955 14.0051 25.3805 14.5768C25.7244 15.6348 24.3486 16.136 23.8567 16.7596Z"
    fill="black"
  />
  <path
    d="M2.28016 23.9838C2.8978 23.6125 3.51913 23.2599 3.38969 22.4654C3.31942 22.0459 2.98656 21.8232 2.70178 21.5559C2.62781 21.4891 1.59226 20.7429 1.53308 20.5759C1.37035 19.9299 2.08785 19.6478 2.44659 19.3434C3.29353 18.6009 3.41927 17.9661 2.75726 17.0381C2.25058 16.329 0.933941 15.8316 1.4924 14.8107C1.80307 14.239 2.55385 14.0682 2.77575 13.3555C3.24175 11.8928 0.81929 10.9684 1.84745 9.87703C2.6685 9.00835 3.43407 8.68909 2.73137 7.31926C2.57234 7.00742 1.9621 6.50998 1.91402 6.2464C1.81786 5.70812 2.4207 5.45568 2.70548 5.25151C3.1345 4.93596 3.73364 4.84315 3.97773 4.29373C4.31059 3.55128 3.88897 2.88306 3.34531 2.35963C3.88795 2.18638 4.44492 2.06214 5.00959 1.9884C5.36695 2.26521 5.68217 2.59287 5.94529 2.96102C6.29294 3.529 7.18796 3.54014 5.98597 4.63155C5.79735 4.80232 5.29067 4.81717 5.05027 4.92111C4.18854 5.29234 3.72624 5.95684 4.07019 6.91833C4.37716 7.77216 5.61983 8.29559 4.77289 9.30905C4.46592 9.68028 3.87788 9.71369 3.61529 10.1852C2.79054 11.6701 5.05027 12.2343 4.81727 13.4557C4.61386 14.51 3.01985 14.8404 3.33791 16.136C3.49324 16.7633 4.12197 17.1012 4.5288 17.5392C4.93562 17.9773 5.36464 18.3485 5.10575 18.9239C4.9985 19.1541 4.39196 19.451 4.21073 19.6107C3.5968 20.1452 3.23805 20.691 3.68186 21.4668C3.98883 22.0051 4.79138 22.2093 5.07246 22.7364C5.50148 23.5049 4.97261 23.3898 4.41785 23.8947C4.33376 23.9669 4.27535 24.0646 4.25142 24.1731C3.59116 24.1494 2.93291 24.0862 2.28016 23.9838Z"
    fill="#E0E19A"
  />
  <path
    d="M4.83946 21.0659C4.9948 21.6227 6.17459 21.9383 6.47416 22.4766C6.98503 23.3813 6.55621 23.7547 5.9834 24.1211C6.51834 24.1205 7.02027 24.0991 7.44315 24.1174H7.65026C7.67749 24.0763 7.7098 24.0389 7.74642 24.006C8.30118 23.5012 8.83005 23.6162 8.40104 22.8478C8.11996 22.3207 7.3174 22.1165 7.01043 21.5782C6.56662 20.8023 6.92537 20.2566 7.53931 19.722C7.72053 19.5624 8.32707 19.2654 8.43432 19.0353C8.69321 18.4673 8.2605 18.0886 7.85367 17.6506C7.44685 17.2125 6.81812 16.8747 6.66278 16.2473C6.34472 14.9517 7.93873 14.6213 8.14215 13.5671C8.37515 12.3457 6.11542 11.7814 6.94016 10.2965C7.20275 9.82506 7.7908 9.79165 8.09777 9.42042C8.9447 8.40696 7.70204 7.88353 7.39507 7.0297C7.05112 6.06821 7.51342 5.40371 8.37515 5.03248C8.62294 4.92483 9.11113 4.91369 9.31084 4.74292C10.2946 3.89652 9.407 3.46218 9.03716 2.6529C8.88415 2.32881 8.63476 2.06033 8.32337 1.88445C8.28265 1.85817 8.24746 1.82411 8.21981 1.78422H8.16434C7.60958 1.80278 7.05481 1.81763 6.50005 1.84733C7.06619 2.32408 7.46965 2.96659 7.65396 3.68492C7.92024 5.26264 6.93277 5.17726 5.90831 5.80835C4.63235 6.59165 5.9157 7.23387 6.23746 8.21763C6.3246 8.43832 6.36183 8.67568 6.34648 8.91257C6.33113 9.14946 6.26358 9.37997 6.1487 9.58747C5.77886 10.2 4.59907 10.3039 4.79508 11.2097C4.92083 11.7889 5.9231 12.2492 6.10432 12.9471C6.16717 13.1783 6.17584 13.4209 6.12964 13.656C6.08344 13.8911 5.98363 14.1122 5.83804 14.3021C5.61983 14.6399 5.17972 14.8181 4.97631 15.1411C4.46592 15.9578 4.70632 15.9912 5.15013 16.5926C5.76777 17.4464 7.03632 18.1035 6.29664 19.3026C5.94899 19.852 4.63975 20.2603 4.83946 21.0659Z"
    fill="#E0E19A"
  />
  <path
    d="M12.0773 5.22923C11.4005 5.91972 10.3612 5.81578 10.6978 7.15963C10.8494 7.76102 11.6076 8.06914 11.737 8.60371C11.9848 9.64316 10.7865 9.7174 10.3612 10.3002C9.71397 11.2135 10.4056 11.9077 11.001 12.587C12.4471 14.2353 10.0579 14.4432 9.96916 15.9615C9.8878 17.4464 12.2215 17.8436 10.9344 19.5067C10.4758 20.1044 9.37372 20.4831 9.77315 21.4446C9.93958 21.8418 10.3612 21.9234 10.6349 22.187C11.4115 22.9295 11.0972 23.4492 10.7569 24.1731L9.43289 24.1582C9.94327 23.8093 10.2835 23.4455 9.80273 22.5917C9.50316 22.0534 8.32337 21.7378 8.16804 21.181C7.96832 20.3754 9.27756 19.9671 9.62521 19.4176C10.3649 18.2186 9.09634 17.5615 8.4787 16.7077C8.03489 16.1063 7.7945 16.0729 8.30488 15.2561C8.50829 14.9332 8.9484 14.755 9.16661 14.4172C9.31164 14.2277 9.41113 14.0072 9.45731 13.7728C9.5035 13.5384 9.49514 13.2965 9.43289 13.0659C9.25167 12.368 8.2494 11.9077 8.12365 11.3285C7.92764 10.4227 9.10743 10.3188 9.47727 9.70626C9.59215 9.49876 9.6597 9.26825 9.67505 9.03136C9.6904 8.79447 9.65317 8.55712 9.56604 8.33643C9.22578 7.35267 7.95353 6.71044 9.21469 5.93086C10.2096 5.31833 11.1601 5.44083 10.9123 3.93364C10.7113 3.11013 10.2951 2.35534 9.70658 1.7471C10.339 1.7471 10.9714 1.71369 11.6039 1.70626C12.0588 2.58979 12.6283 4.66125 12.0736 5.22923H12.0773Z"
    fill="#E0E19A"
  />
  <path
    d="M11.9626 24.1879C12.3324 23.4232 12.7023 22.5879 12.1512 21.864C11.7074 21.2775 10.8124 21.4928 11.2377 20.691C11.4966 20.2046 12.2437 19.993 12.5322 19.4696C12.6469 19.2495 12.7156 19.0082 12.734 18.7605C12.7524 18.5129 12.7203 18.264 12.6394 18.0292C12.4212 17.3239 11.5077 16.9675 11.3117 16.3847C10.9123 15.2116 13.1313 14.6028 12.7134 13.1179C12.5248 12.4682 11.5521 12.0042 11.4337 11.4473C11.234 10.5378 12.4138 10.4413 12.7874 9.82506C13.5936 8.48492 11.4633 7.35638 12.1919 6.38376C12.5211 5.942 13.2571 5.93828 13.5307 5.32204C13.6737 4.90855 13.6828 4.46027 13.5566 4.0413C13.3827 3.24063 13.1427 2.45587 12.8391 1.69513H14.2519C14.1301 2.05313 14.0762 2.43087 14.0929 2.80882C14.0929 3.96705 15.3947 5.29977 14.9546 6.2464C14.5145 7.19304 13.4087 7.73132 14.178 8.91555C14.7401 9.7768 15.6943 9.70255 14.9176 10.8385C14.5478 11.3694 13.9856 11.6032 13.8377 12.3012C13.4864 13.9531 15.8644 14.239 14.5441 15.8501C13.8599 16.6891 12.5839 17.2051 13.2534 18.4747C13.479 18.9239 14.4627 19.2951 14.5663 19.7369C14.7327 20.4385 13.4124 21.0882 13.0869 21.5633C12.9467 21.7475 12.8485 21.9603 12.7993 22.1868C12.7501 22.4132 12.751 22.6478 12.8021 22.8738C12.976 23.4269 13.8044 23.6571 13.5122 24.1026C12.9975 24.1574 12.4803 24.1859 11.9626 24.1879Z"
    fill="#E0E19A"
  />
  <path
    d="M17.9392 5.13271C19.0858 6.3355 16.6263 7.46404 17.4141 8.90812C17.7654 9.55035 18.9193 9.68028 18.6013 10.6158C18.3941 11.2283 17.4141 11.529 17.1848 12.264C16.7077 13.8084 19.0118 14.3466 18.0798 15.7684C17.5065 16.6445 15.8607 17.1086 16.4858 18.4673C16.7336 19.0167 17.5176 19.2097 17.7469 19.7258C18.2018 20.7021 16.7299 21.0659 16.1603 21.5633C14.9065 22.6362 16.434 23.2042 16.4599 24.1211C15.9014 24.1211 15.3504 24.1434 14.7808 24.1508C14.84 23.8056 14.6181 23.5197 14.3666 22.974C13.5936 21.3072 16.2158 21.3889 15.9273 19.8037C15.6832 18.4005 13.564 18.4339 14.9768 16.9007C15.6462 16.1582 16.826 15.7647 16.3785 14.5508C16.1566 13.942 15.3688 13.6487 15.1617 13.0993C14.6957 11.8742 16.0272 11.5921 16.471 10.8088C17.1182 9.66172 16.1862 9.37587 15.5981 8.64083C14.5774 7.36752 16.974 6.39489 16.4488 4.89884C16.2639 4.36798 15.9347 4.42738 15.6425 4.071C15.1802 3.50302 14.9657 2.28909 15.5316 1.68028C16.2121 1.68028 16.8926 1.68028 17.5694 1.71369C17.0035 2.21856 16.4599 2.81995 16.3341 3.33225C15.968 4.68724 17.292 4.44594 17.9392 5.13271Z"
    fill="#E0E19A"
  />
  <path
    d="M19.071 24.0543C18.5717 24.0766 18.0724 24.0877 17.5916 24.1026C17.5548 23.8208 17.4563 23.5508 17.3031 23.3118C17.0849 22.9406 16.7853 22.8738 16.9333 22.4691C17.0405 22.187 17.5731 22.0014 17.8246 21.8269C18.5643 21.3295 19.6072 20.691 19.1634 19.6589C18.9008 19.039 18.0058 18.8237 17.758 18.2631C17.3512 17.361 18.6789 16.8153 19.156 16.3253C20.1731 15.3044 19.6738 14.729 18.9637 13.7267C18.5939 13.2181 18.224 12.78 18.6308 12.0636C18.8675 11.6626 19.426 11.451 19.6886 11.0464C19.8103 10.8912 19.8961 10.7107 19.9396 10.5181C19.9831 10.3254 19.9833 10.1254 19.9401 9.93271C19.8143 9.37216 19.3853 9.28677 19.0784 8.88213C18.2425 7.78701 19.0488 7.41578 19.5444 6.49884C20.1213 5.41856 19.6146 4.6761 18.605 4.19721C17.7062 3.77401 17.4104 3.79629 18.0428 2.93132C18.3843 2.49923 18.7767 2.11031 19.2115 1.77308H19.7921C20.1361 1.77308 20.4764 1.8065 20.8203 1.82506C20.3321 2.43759 19.8957 3.16891 19.9549 3.8C20.1065 5.38886 22.5808 4.84687 21.6561 6.76984C21.1828 7.76102 20.5022 8.37726 21.4305 9.39443C21.6155 9.5949 22.0926 9.73596 22.2146 9.94756C22.6177 10.6455 21.9224 10.961 21.5452 11.3805C21.1305 11.7467 20.8667 12.255 20.8055 12.806C20.8159 13.3015 21.019 13.7731 21.3714 14.1202C21.8485 14.7216 22.4809 14.781 21.8189 15.8241C21.63 16.0237 21.4176 16.1994 21.1864 16.3476C20.3469 17.09 19.6294 17.8325 20.4098 18.9016C20.9461 19.6441 22.063 19.7072 21.2271 20.7578C20.8129 21.2701 20.0325 21.4483 19.6516 21.994C19.0894 22.8032 19.4186 23.4046 19.8661 24.0506C19.6012 24.0376 19.3358 24.0389 19.071 24.0543Z"
    fill="#E0E19A"
  />
  <path
    d="M23.8567 16.7596C23.0837 17.7323 23.4869 18.4376 24.3079 19.1949C25.9315 20.6798 23.0948 20.9063 22.7065 22.2056C22.4735 22.9889 23.2724 23.4121 23.816 23.7647C23.8701 23.7982 23.9125 23.8476 23.9374 23.9062C23.9623 23.9648 23.9685 24.0298 23.9551 24.092C23.9417 24.1543 23.9094 24.2109 23.8626 24.254C23.8159 24.2971 23.757 24.3246 23.694 24.3327C22.8935 24.3853 22.0896 24.3479 21.2974 24.2213C21.0459 23.8501 20.3913 23.1819 20.4209 22.8923C20.4653 22.4766 21.9705 21.6673 22.3071 21.3555C23.0246 20.6872 23.1244 20.0821 22.4809 19.3248C21.915 18.6529 21.0015 18.497 21.6118 17.4687C21.9483 16.8896 22.8064 16.6891 23.1762 16.1211C23.8974 15.0074 23.032 14.5657 22.4809 13.6933C21.3714 11.9114 23.7753 11.8371 23.6755 10.2668C23.6511 10.0701 23.5871 9.88041 23.4872 9.70935C23.3874 9.5383 23.2539 9.38946 23.0948 9.27193C22.5512 8.76334 22.4328 9.07146 22.4328 8.20278C22.4328 7.46032 22.6806 7.46032 23.0468 6.9406C23.5941 6.14246 23.7088 5.25151 22.8655 4.6167C22.2738 4.17123 21.3233 4.34571 21.3381 3.50301C21.3381 2.97958 21.8596 2.32993 22.2553 1.90673H22.4957C23.1448 1.86781 23.7956 1.86781 24.4447 1.90673C23.9159 2.37819 23.5091 2.96102 23.7051 3.71462C23.8328 4.11753 24.0938 4.46459 24.4447 4.69838C25.0143 5.129 25.7318 5.01763 25.3028 6.24269C25.214 6.49141 24.7702 6.77355 24.6186 7.02599C23.9048 8.22135 24.4669 8.65197 25.1992 9.51323C26.1053 10.5824 25.0365 10.7346 24.4595 11.6664C24.3192 11.8633 24.2226 12.0881 24.176 12.3256C24.1294 12.5632 24.1341 12.808 24.1896 13.0436C24.3597 13.7193 25.1955 14.0051 25.3805 14.5768C25.7244 15.6348 24.3486 16.136 23.8567 16.7596Z"
    fill="#E0E19A"
  />
</svg>
