<svg viewBox="0 0 186 129" fill="none" xmlns="http://www.w3.org/2000/svg">
  <path
    d="M141 75.376C143.5 76.876 151 83.2093 154.5 87.376C158.111 92.2997 165.784 95.9888 171 97.8907C172.097 98.1207 174.476 98.235 175.22 96.6028C180.142 86.3258 183.42 65.9399 184.5 56.376V54.376C183.7 56.776 169.833 63.376 163 66.376C161 67.376 139 72.876 138.248 73.376C139.312 74.0925 140.242 74.7752 141 75.376Z"
    fill="#0E0E0E"
  />
  <path
    d="M1 25.376C17.8333 21.376 53.1 14.276 59.5 17.876L71 13.376C72.1667 13.5427 74.1 14.376 72.5 16.376L60 21.376L56.75 25.126M72.5 56.376L75.5 55.1974M75.5 55.1974L86.5 50.876C89.7 47.276 86.1667 46.7093 84 46.876L71.5 50.876C70.3 45.676 62.6667 46.7093 59 47.876L63 37.876L76 33.876C78 31.076 75.8333 29.376 74.5 28.876L62.5 31.876L53.5 28.876L56.75 25.126M75.5 55.1974C76.4187 56.4588 77.1123 59.4679 75.5822 64M2.5 127.376C15.5 121.709 41.8 110.076 43 108.876C56.6 102.476 62 102.876 63 103.876C64.6 98.276 72 97.876 75.5 98.376C77.9 97.176 77.5 95.2093 77 94.376C80.1667 93.0427 86.6 90.376 87 90.376C89.8 87.176 87.1667 86.376 85.5 86.376L78.5 89.376C77.3 89.376 78.3333 88.0427 79 87.376L89.5 81.876C91.1 78.276 88.5 77.7093 87 77.876L79 81.376C79.4 80.176 77.8333 80.2093 77 80.376C75.1505 80.7459 73.6716 80.8707 72.5 80.8104M56.75 25.126L129.5 4.37601C137 2.04268 154.2 -0.623986 163 7.37601C174 17.376 184 27.876 184.5 33.876V54.376M72.5 80.8104C67.3368 80.5447 68.1416 76.6853 69.5 74.376C72.7554 70.3455 74.614 66.8678 75.5822 64M72.5 80.8104C93 70.2448 114 66.376 115.5 66.376C122.921 64.6895 132.522 69.5213 138.248 73.376M138.248 73.376C139.312 74.0925 140.242 74.7752 141 75.376C143.5 76.876 151 83.2093 154.5 87.376C158.111 92.2997 165.784 95.9888 171 97.8907C172.097 98.1207 174.476 98.235 175.22 96.6028C180.142 86.3258 183.42 65.9399 184.5 56.376V54.376M138.248 73.376C139 72.876 161 67.376 163 66.376M163 66.376C169.833 63.376 183.7 56.776 184.5 54.376M163 66.376C154.833 60.2507 147 50.5 127.5 50C108.5 51.376 86.5 59.5 75.5822 64"
    stroke="black"
    stroke-width="3"
    stroke-linejoin="round"
  />
  <circle cx="155" cy="35" r="3.5" fill="black" stroke="black" stroke-width="5" stroke-linejoin="round" />
</svg>
