<svg viewBox="0 0 130 196" fill="none" xmlns="http://www.w3.org/2000/svg">
  <path
    d="M79.7101 71.0985C81.2832 69.1567 87.5666 63.5479 91.5322 61.0734C96.1568 58.5945 100.204 52.5264 102.439 48.3305C102.763 47.4281 103.14 45.4249 101.834 44.6023C93.6422 39.2177 76.6317 34.0329 68.5976 31.9889L66.891 31.7528C68.8451 32.7141 72.8511 45.2454 74.6098 51.3908C75.2286 53.2039 77.3425 72.4984 77.6809 73.1949C78.417 72.3775 79.1086 71.6696 79.7101 71.0985Z"
    fill="#0E0E0E"
  />
  <path
    d="M20.6328 183.849C19.1932 169.11 17.2694 138.383 21.0915 133.384L18.6 123.106C18.879 122.137 19.8167 120.597 21.3357 122.189L24.1366 133.373L26.9554 136.57M55.467 126.911L54.8131 124.229M54.8131 124.229L52.4153 114.396C49.7186 111.259 48.8209 114.187 48.7091 116.043L50.6567 127.109C46.079 127.512 46.0658 134.104 46.6314 137.349L38.5675 132.778L36.6785 121.289C34.5238 119.263 32.8192 120.899 32.2362 121.97L33.3892 132.494L29.7742 139.767L26.9554 136.57M54.8131 124.229C55.9971 123.599 58.646 123.367 62.3338 125.198M107.844 194.617C104.532 182.931 97.6892 159.268 96.8059 158.109C92.9393 145.828 93.9137 141.298 94.8842 140.569C90.2934 138.552 90.8197 132.233 91.6567 129.326C90.9141 127.15 89.1891 127.257 88.4194 127.582C87.6529 124.741 86.1317 118.974 86.1786 118.635C83.7764 115.884 82.785 118.021 82.5896 119.434L84.3288 125.721C84.1881 126.738 83.1716 125.705 82.6809 125.061L79.2188 115.513C76.3345 113.732 75.5462 115.868 75.5126 117.159L77.5612 124.353C76.5841 123.872 76.4289 125.204 76.4734 125.93C76.5722 127.541 76.5053 128.809 76.3165 129.795M26.9554 136.57L17.7788 72.4644C16.6671 65.8327 16.4081 50.9406 24.2661 44.4268C34.0885 36.2844 44.2204 29.0487 49.3987 29.3331L66.891 31.7528M76.3165 129.795C75.4845 134.139 72.2857 133.002 70.4744 131.578C67.4169 128.343 64.6674 126.357 62.3338 125.198M76.3165 129.795C69.7043 111.174 68.8652 92.9191 69.041 91.6478C68.4719 85.1596 73.7205 77.5925 77.6809 73.1949M77.6809 73.1949C78.417 72.3775 79.1086 71.6696 79.7101 71.0985C81.2832 69.1567 87.5666 63.5479 91.5322 61.0734C96.1568 58.5945 100.204 52.5264 102.439 48.3305C102.763 47.4281 103.14 45.4249 101.834 44.6023C93.6422 39.2177 76.6317 34.0329 68.5976 31.9889L66.891 31.7528M77.6809 73.1949C77.3425 72.4984 75.2286 53.2039 74.6098 51.3908M74.6098 51.3908C72.8511 45.2454 68.8451 32.7141 66.891 31.7528M74.6098 51.3908C68.4257 57.5892 59.1873 63.0771 56.4745 79.5447C55.4211 95.8099 59.774 115.414 62.3338 125.198"
    stroke="black"
    stroke-width="3"
    stroke-linejoin="round"
  />
  <path
    d="M110.881 21.5947C114.16 31.4739 117.658 41.4679 119.874 51.6607C119.874 48.5328 119.805 43.9258 119.459 40.824C118.496 32.2105 118.628 23.635 118.628 14.9774C118.628 11.3407 119.492 6.4136 118.19 2.94178C117.587 1.33275 111.925 2.27313 110.928 2.27313C110.547 2.27313 105.152 1.72558 105.025 3.1954C104.762 6.22877 106.637 9.07105 107.607 11.957C108.689 15.1729 109.813 18.3745 110.881 21.5947Z"
    stroke="#0E0E0E"
    stroke-width="3"
    stroke-linecap="round"
  />
  <path
    d="M123.483 60.6156C119.937 60.6156 119.944 63.8724 120.14 66.4259C120.86 69.2259 126.396 67.0744 127.057 65.642C128.047 63.4976 125.496 60.6156 123.483 60.6156Z"
    stroke="#0E0E0E"
    stroke-width="3"
    stroke-linecap="round"
  />
  <path
    d="M47.2601 51.8588C48.7358 52.0629 49.7397 53.4082 49.5425 54.8331C49.3454 56.258 48.0141 57.2803 46.5384 57.0762C45.0627 56.872 44.0589 55.5268 44.256 54.1018C44.4531 52.6769 45.7844 51.6547 47.2601 51.8588Z"
    fill="black"
    stroke="black"
    stroke-width="5"
    stroke-linejoin="round"
  />
</svg>
